<svg width="734" height="621" viewBox="0 0 734 621" fill="none" xmlns="http://www.w3.org/2000/svg">
<path d="M625.777 558.909C482.618 641.15 250.522 641.15 107.363 558.909C-35.7958 476.669 -35.7795 343.353 107.363 261.129C250.505 178.905 482.635 178.905 625.777 261.129C768.92 343.353 768.936 476.686 625.777 558.909Z" fill="#FAFAFA"/>
<path d="M408.387 410.019C378.304 392.66 329.536 392.66 299.454 410.019C273.956 424.757 270.091 447.209 287.81 464.305C286.809 464.567 285.845 464.958 284.944 465.468L189.964 520.327C185.935 522.653 185.935 526.436 189.964 528.761L195.925 532.2C198.162 533.337 200.649 533.896 203.158 533.824C205.666 533.753 208.117 533.054 210.286 531.791L298.717 473.869C299.078 473.632 299.418 473.363 299.732 473.066C329.831 490.278 378.337 490.228 408.37 472.919C438.404 455.61 438.551 427.394 408.387 410.019Z" fill="#E6E6E6"/>
<path d="M619.833 346.859L498.782 416.899C497.272 417.666 495.603 418.065 493.91 418.065C492.217 418.065 490.548 417.666 489.038 416.899L278.46 295.308C275.774 293.768 275.774 291.246 278.46 289.691L399.511 219.651C401.02 218.884 402.69 218.484 404.383 218.484C406.076 218.484 407.745 218.884 409.254 219.651L619.833 341.242C622.519 342.782 622.519 345.303 619.833 346.859Z" fill="#E6E6E6"/>
<path d="M80.7848 479.324L48.4095 460.622C44.4957 458.362 44.4957 454.694 48.4095 452.434L273.694 322.36C275.891 321.245 278.321 320.664 280.785 320.664C283.249 320.664 285.678 321.245 287.875 322.36L320.267 341.061C324.181 343.321 324.181 346.989 320.267 349.249L94.9664 479.324C92.769 480.439 90.3397 481.02 87.8756 481.02C85.4116 481.02 82.9822 480.439 80.7848 479.324V479.324Z" fill="#E6E6E6"/>
<path d="M620.16 516.498C653.198 516.498 679.981 501.864 679.981 483.811C679.981 465.759 653.198 451.125 620.16 451.125C587.121 451.125 560.338 465.759 560.338 483.811C560.338 501.864 587.121 516.498 620.16 516.498Z" fill="#E6E6E6"/>
<path d="M646.347 451.349C646.92 444.094 653.372 429.503 661.658 420.693C669.944 411.883 682.308 405.955 690.48 409.508C698.095 412.783 696.424 423.018 686.37 429.045C676.315 435.071 661.38 442.489 656.254 453.903L646.347 467.627V451.349Z" fill="#FFA225"/>
<path opacity="0.1" d="M646.347 451.349C646.92 444.094 653.372 429.503 661.658 420.693C669.944 411.883 682.308 405.955 690.48 409.508C698.095 412.783 696.424 423.018 686.37 429.045C676.315 435.071 661.38 442.489 656.254 453.903L646.347 467.627V451.349Z" fill="black"/>
<path d="M645.004 461.22C645.122 461.221 645.237 461.183 645.332 461.112C645.427 461.041 645.495 460.941 645.528 460.827C652.373 436.476 674.005 417.971 686.337 414.499C686.458 414.448 686.557 414.354 686.614 414.235C686.671 414.116 686.683 413.98 686.646 413.853C686.61 413.726 686.529 413.617 686.417 413.546C686.306 413.475 686.172 413.447 686.042 413.468C673.481 417.021 651.439 435.821 644.496 460.549C644.476 460.616 644.47 460.687 644.479 460.757C644.487 460.827 644.51 460.895 644.545 460.956C644.58 461.017 644.627 461.071 644.684 461.113C644.74 461.156 644.804 461.187 644.873 461.204L645.004 461.22Z" fill="white"/>
<path d="M647.427 477.287C648.918 473.307 654.436 466.986 662.936 462.074C672.335 456.653 683.831 454.737 686.812 450.152C690.398 444.666 685.993 438.852 676.74 439.245C667.488 439.638 650.424 450.823 646.347 469.41L647.427 477.287Z" fill="#FFA225"/>
<path d="M646.003 472.93C646.104 472.932 646.203 472.903 646.288 472.847C646.372 472.792 646.439 472.712 646.478 472.619C655.779 452.034 672.548 445.893 680.114 445.517C680.253 445.517 680.386 445.462 680.484 445.363C680.583 445.265 680.638 445.132 680.638 444.993C680.638 444.854 680.583 444.72 680.484 444.622C680.386 444.524 680.253 444.469 680.114 444.469C671.746 444.878 655.059 451.167 645.561 472.177C645.531 472.241 645.515 472.311 645.513 472.382C645.511 472.452 645.523 472.523 645.549 472.588C645.575 472.654 645.614 472.714 645.664 472.764C645.714 472.815 645.773 472.854 645.839 472.881C645.89 472.908 645.946 472.924 646.003 472.93Z" fill="white"/>
<path d="M51.0799 410.913C51.0799 410.913 49.4424 395.863 41.8767 384.171C34.311 372.478 24.0923 365.207 14.496 364.438C4.89969 363.668 -2.84614 372.511 7.42159 378.587C17.6893 384.662 35.9322 390.836 44.333 413.516L51.0799 410.913Z" fill="#FFA225"/>
<path opacity="0.1" d="M51.0799 410.913C51.0799 410.913 49.4424 395.863 41.8767 384.171C34.311 372.478 24.0923 365.207 14.496 364.438C4.89969 363.668 -2.84614 372.511 7.42159 378.587C17.6893 384.662 35.9322 390.836 44.333 413.516L51.0799 410.913Z" fill="black"/>
<path d="M48.2631 406.999H48.3614C48.4243 406.974 48.4815 406.936 48.5297 406.889C48.5779 406.841 48.6161 406.784 48.6421 406.722C48.668 406.659 48.6812 406.592 48.6808 406.524C48.6804 406.457 48.6664 406.39 48.6397 406.328C38.5194 381.371 19.163 370.955 10.451 368.925C10.3233 368.911 10.1951 368.945 10.0908 369.02C9.98647 369.095 9.91322 369.205 9.88494 369.331C9.85667 369.456 9.87534 369.587 9.93741 369.699C9.99949 369.812 10.1007 369.897 10.2217 369.94C18.8191 371.905 37.717 382.157 47.6899 406.704C47.739 406.81 47.822 406.897 47.9258 406.95C48.0297 407.003 48.1484 407.021 48.2631 406.999V406.999Z" fill="white"/>
<path d="M2.21419 406.869C3.14762 408.965 5.48938 410.046 7.53638 410.897C9.74815 411.495 11.7 412.808 13.0878 414.631C15.3968 418.61 11.614 424.211 14.0868 428.076C14.6668 428.859 15.4028 429.513 16.2483 429.998C17.0938 430.483 18.0306 430.787 18.9996 430.892C20.5848 431.122 22.1808 431.27 23.7814 431.334C24.5428 431.316 25.3027 431.256 26.0576 431.154C28.2589 430.659 30.5622 430.907 32.608 431.858C35.7686 433.627 36.7347 437.623 38.6507 440.701C39.842 442.517 41.4112 444.054 43.2512 445.207C45.0911 446.36 47.1583 447.102 49.3115 447.383C51.145 447.754 53.0443 447.629 54.8138 447.023L55.125 446.826C55.3244 446.614 55.5104 446.39 55.6818 446.155V446.056C56.2385 443.993 55.3215 441.848 55.2887 439.719V439.326C55.2887 436.853 55.4525 434.413 55.5016 431.924C55.6108 427.371 55.6545 422.819 55.6326 418.266C55.6326 415.319 55.9601 412.076 54.7156 409.292C53.3236 406.23 49.8847 406.165 48.591 403.151C48.0669 401.956 47.7885 400.679 47.2809 399.467C46.5007 397.693 45.2478 396.169 43.6592 395.06C42.0707 393.951 40.2077 393.3 38.2741 393.178C32.2477 392.867 26.8109 397.731 20.85 397.289C19.302 397.08 17.766 396.79 16.2484 396.421C11.3356 395.504 5.7514 396.896 3.01661 401.006C2.41341 401.843 2.0248 402.815 1.8849 403.837C1.745 404.86 1.85806 405.9 2.21419 406.869V406.869Z" fill="#FFA225"/>
<path d="M56.2387 436.61C56.3045 436.595 56.3664 436.566 56.4207 436.526C56.475 436.486 56.5205 436.435 56.5543 436.377C56.5881 436.319 56.6095 436.254 56.6172 436.187C56.6249 436.12 56.6187 436.052 56.599 435.987C48.3291 404.808 15.4953 400.321 7.86408 400.861C7.79736 400.865 7.73213 400.882 7.67212 400.912C7.61211 400.941 7.5585 400.982 7.51437 401.033C7.47025 401.083 7.43647 401.141 7.41499 401.205C7.3935 401.268 7.38473 401.335 7.38917 401.401C7.37994 401.47 7.38525 401.539 7.40474 401.606C7.42422 401.672 7.45745 401.733 7.50226 401.786C7.54707 401.838 7.60246 401.881 7.6648 401.911C7.72714 401.94 7.79504 401.957 7.86408 401.958C15.3806 401.418 47.5103 405.823 55.6328 436.348C55.686 436.456 55.7763 436.543 55.8874 436.591C55.9985 436.639 56.1231 436.646 56.2387 436.61V436.61Z" fill="white"/>
<path d="M19.7525 420.816C19.8582 420.797 19.9554 420.745 20.0309 420.669C23.0624 418.042 26.636 416.117 30.497 415.03C34.358 413.943 38.4112 413.721 42.3678 414.381C42.5037 414.395 42.6402 414.358 42.7496 414.276C42.859 414.194 42.9332 414.073 42.9573 413.938C42.9665 413.872 42.9623 413.804 42.9449 413.739C42.9276 413.674 42.8975 413.613 42.8563 413.559C42.8152 413.506 42.7638 413.461 42.7052 413.428C42.6467 413.395 42.582 413.373 42.5151 413.365C38.4025 412.691 34.1918 412.933 30.1834 414.074C26.1751 415.214 22.468 417.226 19.3268 419.965C19.2792 420.012 19.2415 420.068 19.2158 420.13C19.19 420.192 19.1768 420.258 19.1768 420.325C19.1768 420.392 19.19 420.458 19.2158 420.52C19.2415 420.582 19.2792 420.638 19.3268 420.685C19.3843 420.736 19.4521 420.774 19.5255 420.797C19.5989 420.819 19.6763 420.826 19.7525 420.816V420.816Z" fill="white"/>
<path d="M615.41 324.176L498.453 391.858C496.992 392.593 495.38 392.975 493.745 392.975C492.11 392.975 490.498 392.593 489.037 391.858L285.484 274.361C282.88 272.87 282.88 270.43 285.484 268.94L402.523 201.242C403.981 200.507 405.59 200.125 407.223 200.125C408.855 200.125 410.465 200.507 411.922 201.242L615.41 318.739C617.932 320.246 617.932 322.67 615.41 324.176Z" fill="#37474F"/>
<path d="M552.838 355.208C550.809 356.239 548.565 356.776 546.288 356.776C544.012 356.776 541.767 356.239 539.738 355.208C536.135 353.128 536.135 349.754 539.738 347.675C541.765 346.636 544.01 346.094 546.288 346.094C548.566 346.094 550.811 346.636 552.838 347.675C556.458 349.754 556.458 353.128 552.838 355.208Z" fill="#263238"/>
<path d="M498.371 391.86L615.411 324.178C617.736 322.836 617.982 320.739 616.148 319.266C617.311 320.186 618.267 321.341 618.952 322.656C619.638 323.971 620.038 325.416 620.127 326.897V331.318C620.043 332.959 619.572 334.556 618.752 335.979C617.933 337.402 616.787 338.611 615.411 339.506L498.453 407.188C497.008 407.958 495.391 408.347 493.753 408.318V393.039C495.367 393.039 496.955 392.633 498.371 391.86V391.86Z" fill="#455A64"/>
<path d="M285.484 289.656C284.11 288.758 282.968 287.549 282.151 286.126C281.335 284.703 280.866 283.106 280.784 281.468V277.046C280.87 275.563 281.269 274.114 281.955 272.796C282.641 271.478 283.598 270.32 284.764 269.398C282.929 270.905 283.126 272.985 285.484 274.311L488.956 391.809C490.406 392.58 492.029 392.969 493.672 392.939V408.218C492.029 408.248 490.406 407.859 488.956 407.088L285.484 289.656Z" fill="#263238"/>
<path d="M478.835 377.674L589.16 313.808C589.507 313.697 589.81 313.478 590.025 313.184C590.24 312.89 590.355 312.535 590.355 312.17C590.355 311.806 590.24 311.451 590.025 311.157C589.81 310.862 589.507 310.644 589.16 310.533L426.088 216.207C425.216 215.763 424.251 215.531 423.272 215.531C422.293 215.531 421.327 215.763 420.455 216.207L310.081 280.074C309.734 280.185 309.431 280.403 309.216 280.697C309.001 280.992 308.886 281.347 308.886 281.711C308.886 282.075 309.001 282.43 309.216 282.725C309.431 283.019 309.734 283.238 310.081 283.349L473.186 377.674C474.061 378.119 475.029 378.35 476.01 378.35C476.992 378.35 477.96 378.119 478.835 377.674V377.674Z" fill="#FAFAFA"/>
<path d="M327.194 282.977L379.891 313.535C380.99 314.092 382.205 314.382 383.437 314.382C384.669 314.382 385.883 314.092 386.982 313.535L479.67 260.035C480.098 259.889 480.47 259.614 480.733 259.247C480.996 258.88 481.137 258.439 481.137 257.988C481.137 257.536 480.996 257.096 480.733 256.728C480.47 256.361 480.098 256.086 479.67 255.941L426.907 225.449C425.808 224.892 424.593 224.602 423.362 224.602C422.13 224.602 420.915 224.892 419.816 225.449L327.194 278.883C326.766 279.028 326.394 279.304 326.131 279.671C325.868 280.038 325.727 280.479 325.727 280.93C325.727 281.382 325.868 281.822 326.131 282.19C326.394 282.557 326.766 282.832 327.194 282.977V282.977Z" fill="#EBEBEB"/>
<path d="M365.89 268.413L379.417 271.05C380.261 271.226 381.139 271.146 381.938 270.82L393.402 265.908C395.219 265.122 397.807 265.908 397.774 267.201L397.594 275.389C397.594 275.913 398.02 276.405 398.757 276.716L410.416 281.481C412.267 282.235 411.825 283.889 409.647 284.282L395.973 286.754C395.615 286.788 395.268 286.9 394.957 287.081C394.646 287.262 394.378 287.508 394.171 287.802L389.93 295.679C389.242 296.924 386.376 297.186 385.017 296.121L376.829 289.391C376.174 288.918 375.377 288.681 374.569 288.719L360.273 288.818C357.997 288.818 356.687 287.344 358.046 286.296L366.594 279.745C366.716 279.676 366.823 279.583 366.909 279.472C366.994 279.361 367.057 279.234 367.094 279.098C367.13 278.963 367.14 278.822 367.121 278.683C367.103 278.543 367.058 278.409 366.987 278.288L362.402 270.477C361.681 269.167 363.728 267.987 365.89 268.413Z" fill="#FAFAFA"/>
<path d="M395.973 251.155L424.991 234.402C425.561 234.066 426.201 233.868 426.86 233.823C427.52 233.777 428.181 233.886 428.791 234.14C429.708 234.68 429.495 235.663 428.332 236.334L399.33 253.087C398.759 253.418 398.12 253.613 397.461 253.659C396.803 253.704 396.142 253.598 395.531 253.349C394.614 252.809 394.827 251.826 395.973 251.155Z" fill="#FAFAFA"/>
<path d="M403.309 255.381L432.311 238.629C432.88 238.293 433.52 238.095 434.179 238.049C434.839 238.004 435.5 238.112 436.11 238.367C437.027 238.907 436.831 239.89 435.652 240.561L406.65 257.314C406.078 257.644 405.439 257.84 404.78 257.885C404.122 257.931 403.462 257.825 402.85 257.576C401.917 257.035 402.13 256.053 403.309 255.381Z" fill="#FAFAFA"/>
<path d="M410.613 259.606L439.615 242.853C440.183 242.514 440.823 242.313 441.483 242.268C442.143 242.222 442.805 242.333 443.414 242.591C444.348 243.131 444.135 244.114 442.956 244.785L413.987 261.538C413.415 261.869 412.776 262.065 412.117 262.11C411.459 262.155 410.799 262.049 410.187 261.8C409.238 261.26 409.434 260.277 410.613 259.606Z" fill="#FAFAFA"/>
<path d="M417.917 263.816L446.935 247.079C447.5 246.74 448.137 246.54 448.795 246.494C449.452 246.449 450.111 246.56 450.718 246.817C451.651 247.342 451.438 248.324 450.276 249.012L421.257 265.748C420.689 266.087 420.049 266.288 419.389 266.333C418.729 266.379 418.067 266.268 417.458 266.01C416.541 265.486 416.754 264.504 417.917 263.816Z" fill="#FAFAFA"/>
<path d="M425.237 268.042L454.239 251.306C454.807 250.967 455.447 250.766 456.107 250.721C456.767 250.675 457.429 250.786 458.038 251.044C458.955 251.568 458.759 252.551 457.579 253.239L428.578 269.975C428.01 270.314 427.369 270.515 426.709 270.56C426.049 270.606 425.388 270.495 424.778 270.237C423.812 269.713 424.058 268.73 425.237 268.042Z" fill="#FAFAFA"/>
<path d="M432.54 272.261L461.477 255.525C462.045 255.186 462.685 254.985 463.345 254.94C464.005 254.894 464.667 255.005 465.276 255.263C466.193 255.787 465.996 256.77 464.817 257.457L435.881 274.226C435.313 274.566 434.673 274.766 434.013 274.812C433.353 274.857 432.691 274.746 432.082 274.488C431.165 273.932 431.361 272.949 432.54 272.261Z" fill="#FAFAFA"/>
<path d="M392.223 320.574L394.614 321.966C395.274 322.297 396.003 322.469 396.742 322.469C397.482 322.469 398.211 322.297 398.871 321.966L454.55 289.852C455.729 289.164 455.729 288.067 454.55 287.396L452.142 286.004C451.482 285.673 450.753 285.5 450.014 285.5C449.274 285.5 448.545 285.673 447.885 286.004L392.206 318.117C391.949 318.204 391.725 318.371 391.567 318.592C391.409 318.814 391.325 319.079 391.327 319.351C391.329 319.623 391.416 319.888 391.577 320.107C391.738 320.327 391.964 320.49 392.223 320.574Z" fill="#E0E0E0"/>
<path d="M492.002 262.966L494.392 264.358C495.572 265.029 495.572 266.126 494.392 266.814L472.039 279.718C471.379 280.05 470.65 280.222 469.91 280.222C469.171 280.222 468.442 280.05 467.782 279.718L465.391 278.326C464.212 277.655 464.212 276.558 465.391 275.87L487.678 262.966C488.348 262.624 489.088 262.445 489.84 262.445C490.592 262.445 491.332 262.624 492.002 262.966V262.966Z" fill="#E0E0E0"/>
<path d="M407.01 329.075L459.839 359.551C460.938 360.107 462.153 360.397 463.385 360.397C464.616 360.397 465.831 360.107 466.93 359.551L559.618 306.05C560.046 305.905 560.417 305.63 560.68 305.262C560.944 304.895 561.085 304.455 561.085 304.003C561.085 303.551 560.944 303.111 560.68 302.744C560.417 302.377 560.046 302.101 559.618 301.956L506.855 271.464C505.756 270.907 504.541 270.617 503.309 270.617C502.077 270.617 500.863 270.907 499.764 271.464L407.01 324.997C406.588 325.146 406.223 325.422 405.964 325.787C405.706 326.152 405.567 326.589 405.567 327.036C405.567 327.483 405.706 327.92 405.964 328.285C406.223 328.65 406.588 328.926 407.01 329.075V329.075Z" fill="#EBEBEB"/>
<path d="M445.755 314.499L459.298 317.152C460.143 317.327 461.021 317.247 461.82 316.922L473.283 312.01C475.118 311.224 477.705 312.01 477.672 313.287L477.492 321.475C477.492 321.999 477.901 322.49 478.638 322.785L490.314 327.55C492.165 328.32 491.706 329.974 489.545 330.367L475.887 332.807C475.53 332.845 475.185 332.958 474.875 333.139C474.564 333.32 474.296 333.564 474.086 333.855L469.844 341.732C469.173 342.977 466.307 343.239 464.932 342.174L456.744 335.444C456.082 334.97 455.28 334.734 454.467 334.772L440.171 334.87C437.911 334.87 436.585 333.397 437.944 332.349L446.492 325.798C446.735 325.654 446.912 325.423 446.989 325.151C447.065 324.88 447.034 324.59 446.902 324.341L442.3 316.529C441.563 315.268 443.61 314.089 445.755 314.499Z" fill="#FAFAFA"/>
<path d="M475.871 297.256L504.873 280.504C505.442 280.168 506.082 279.97 506.742 279.924C507.401 279.879 508.062 279.987 508.672 280.242C509.606 280.782 509.393 281.765 508.214 282.436L479.212 299.189C478.64 299.519 478.001 299.715 477.343 299.76C476.684 299.806 476.024 299.7 475.413 299.451C474.577 298.91 474.692 297.928 475.871 297.256Z" fill="#FAFAFA"/>
<path d="M483.175 301.475L512.242 284.722C512.812 284.387 513.451 284.188 514.111 284.143C514.77 284.097 515.431 284.206 516.041 284.46C516.958 285.001 516.746 285.983 515.583 286.655L486.565 303.407C485.997 303.747 485.359 303.95 484.7 304.002C484.04 304.053 483.378 303.95 482.765 303.702C481.799 303.129 482.012 302.146 483.175 301.475Z" fill="#FAFAFA"/>
<path d="M490.495 305.69L519.497 288.97C520.065 288.631 520.705 288.43 521.365 288.385C522.025 288.339 522.687 288.45 523.296 288.708C524.213 289.232 524.017 290.215 522.838 290.903L493.836 307.639C493.264 307.97 492.625 308.165 491.966 308.211C491.308 308.256 490.648 308.15 490.036 307.901C489.103 307.361 489.316 306.378 490.495 305.69Z" fill="#FAFAFA"/>
<path d="M497.799 309.91L526.8 293.173C527.369 292.834 528.009 292.634 528.669 292.588C529.329 292.543 529.99 292.653 530.6 292.911C531.533 293.435 531.32 294.418 530.141 295.106L501.139 311.891C500.571 312.23 499.931 312.431 499.271 312.476C498.611 312.522 497.949 312.411 497.34 312.153C496.423 311.58 496.62 310.597 497.799 309.91Z" fill="#FAFAFA"/>
<path d="M505.103 314.136L534.121 297.4C534.686 297.061 535.323 296.86 535.981 296.815C536.638 296.769 537.297 296.88 537.904 297.138C538.837 297.662 538.624 298.644 537.462 299.332L508.443 316.068C507.875 316.408 507.235 316.608 506.575 316.654C505.915 316.699 505.253 316.589 504.644 316.33C503.727 315.806 503.94 314.824 505.103 314.136Z" fill="#FAFAFA"/>
<path d="M512.423 318.449L541.425 301.712C541.993 301.373 542.633 301.173 543.293 301.127C543.953 301.082 544.615 301.192 545.224 301.45C546.141 301.974 545.944 302.957 544.765 303.645L515.763 320.381C515.195 320.72 514.555 320.921 513.895 320.966C513.235 321.012 512.573 320.901 511.964 320.643C511.031 320.086 511.244 319.055 512.423 318.449Z" fill="#FAFAFA"/>
<path d="M472.088 366.675L474.496 368.067C475.156 368.398 475.885 368.571 476.625 368.571C477.364 368.571 478.093 368.398 478.753 368.067L534.432 335.954C534.69 335.868 534.915 335.704 535.074 335.483C535.233 335.263 535.319 334.998 535.319 334.726C535.319 334.454 535.233 334.189 535.074 333.968C534.915 333.748 534.69 333.583 534.432 333.497L532.024 332.105C531.364 331.774 530.635 331.602 529.896 331.602C529.156 331.602 528.427 331.774 527.767 332.105L472.088 364.219C471.83 364.304 471.605 364.469 471.446 364.689C471.287 364.91 471.201 365.175 471.201 365.447C471.201 365.719 471.287 365.984 471.446 366.205C471.605 366.425 471.83 366.59 472.088 366.675Z" fill="#E0E0E0"/>
<path d="M571.867 309.058L574.274 310.45C575.453 311.122 575.453 312.219 574.274 312.907L551.921 325.811C551.26 326.142 550.531 326.315 549.792 326.315C549.053 326.315 548.324 326.142 547.663 325.811L545.256 324.419C544.998 324.334 544.773 324.169 544.614 323.948C544.454 323.728 544.369 323.463 544.369 323.191C544.369 322.919 544.454 322.654 544.614 322.433C544.773 322.213 544.998 322.048 545.256 321.963L567.626 309.058C568.283 308.727 569.01 308.555 569.746 308.555C570.483 308.555 571.209 308.727 571.867 309.058V309.058Z" fill="#E0E0E0"/>
<path d="M353.854 240.151C353.405 240.371 352.912 240.485 352.413 240.485C351.913 240.485 351.42 240.371 350.972 240.151C350.802 240.092 350.655 239.981 350.551 239.834C350.447 239.688 350.392 239.512 350.392 239.333C350.392 239.153 350.447 238.978 350.551 238.831C350.655 238.684 350.802 238.573 350.972 238.514C351.42 238.294 351.913 238.18 352.413 238.18C352.912 238.18 353.405 238.294 353.854 238.514C354.656 238.956 354.656 239.693 353.854 240.151Z" fill="#263238"/>
<path d="M349.252 253.236C348.359 253.688 347.371 253.923 346.37 253.923C345.369 253.923 344.381 253.688 343.488 253.236C343.162 253.103 342.884 252.877 342.688 252.585C342.492 252.293 342.387 251.95 342.387 251.598C342.387 251.247 342.492 250.903 342.688 250.612C342.884 250.32 343.162 250.093 343.488 249.961C344.381 249.509 345.369 249.273 346.37 249.273C347.371 249.273 348.359 249.509 349.252 249.961C349.578 250.093 349.856 250.32 350.052 250.612C350.248 250.903 350.353 251.247 350.353 251.598C350.353 251.95 350.248 252.293 350.052 252.585C349.856 252.877 349.578 253.103 349.252 253.236V253.236Z" fill="#263238"/>
<path d="M353.395 247.438C352.33 246.816 352.396 245.8 353.526 245.145L372.489 234.19C373.105 233.875 373.787 233.711 374.479 233.711C375.171 233.711 375.853 233.875 376.469 234.19C377.517 234.796 377.467 235.827 376.338 236.483L357.374 247.422C356.758 247.735 356.077 247.9 355.386 247.903C354.695 247.906 354.013 247.746 353.395 247.438Z" fill="#263238"/>
<path d="M307.395 87.2327V91.0811L294.098 98.7614L274.152 110.225L98.0776 212.001C97.0343 212.656 96.1727 213.563 95.572 214.638C94.925 215.695 94.5639 216.903 94.524 218.142V452.155C94.524 464.879 85.5827 470.037 74.578 463.618C63.5734 457.199 54.6157 441.789 54.6157 429.065V195.036C54.6838 193.805 55.0411 192.607 55.6585 191.541C56.2759 190.474 57.1361 189.567 58.1693 188.895L254.173 75.7204L273.153 64.7812C273.787 65.8486 274.137 67.0609 274.168 68.3021V71.8721L64.818 193.054C63.8355 193.664 63.0197 194.508 62.4434 195.511C61.7277 196.61 61.3257 197.884 61.2807 199.195V432.897C61.2807 441.38 67.2416 451.68 74.5944 455.921C81.9472 460.163 87.8917 456.724 87.8917 448.241V214.228C87.9487 213.002 88.2942 211.807 88.9004 210.74C89.5065 209.673 90.356 208.764 91.3798 208.087L306.364 83.9575C306.982 84.9432 307.337 86.0708 307.395 87.2327V87.2327Z" fill="#E0E0E0"/>
<path d="M287.433 75.9654V87.2321L84.8297 204.255C83.7886 204.917 82.9183 205.815 82.2895 206.876C81.6607 207.937 81.291 209.132 81.2106 210.363V444.376C81.2106 448.617 78.2465 450.337 74.5783 448.208C72.6467 446.954 71.038 445.263 69.8828 443.271C68.7275 441.28 68.0584 439.043 67.9297 436.744V202.715C67.9719 201.479 68.3268 200.273 68.9614 199.211C69.5718 198.143 70.4314 197.239 71.4669 196.574L286.434 72.4609C287.057 73.5265 287.4 74.7318 287.433 75.9654V75.9654Z" fill="#E0E0E0"/>
<path d="M102.205 218.417C101.568 219.472 101.213 220.673 101.173 221.905V453.903C101.176 455.59 101.067 457.275 100.845 458.947C100.78 459.384 100.714 459.809 100.649 460.224C100.649 460.617 100.501 460.994 100.42 461.387C100.338 461.78 100.256 462.075 100.158 462.402C100.059 462.73 99.9938 463.041 99.8955 463.352C98.8106 467.337 96.2604 470.764 92.7556 472.948C87.9902 475.683 81.6035 475.356 74.5782 471.311C59.8399 462.828 47.9673 441.277 47.9673 423.198V191.183C48.0072 189.952 48.3624 188.751 48.999 187.695L55.664 191.527C55.017 192.585 54.6558 193.793 54.6159 195.032V429.044C54.6159 441.769 63.5572 457.244 74.5782 463.598C85.5993 469.952 94.5242 464.81 94.5242 452.135V218.073C94.5641 216.834 94.9252 215.626 95.5722 214.568L102.205 218.417Z" fill="#EBEBEB"/>
<path d="M88.9073 210.74C88.2728 211.797 87.9177 212.997 87.8756 214.229V448.241C87.8756 456.724 81.9148 460.163 74.5783 455.922C67.2419 451.68 61.2646 441.38 61.2646 432.897V199.13C61.3096 197.819 61.7116 196.545 62.4273 195.445L68.9777 199.212C68.3432 200.274 67.9882 201.48 67.946 202.716V436.729C68.0747 439.028 68.7439 441.264 69.8991 443.256C71.0544 445.248 72.6631 446.939 74.5947 448.192C78.2629 450.321 81.227 448.602 81.227 444.36V210.364C81.2668 209.125 81.628 207.917 82.275 206.859L88.9073 210.74Z" fill="#EBEBEB"/>
<path d="M273.153 64.7799L254.206 75.7191L58.1696 188.893C57.1227 189.544 56.26 190.451 55.664 191.53L48.999 187.698C49.5945 186.615 50.457 185.701 51.5046 185.045L247.525 71.8707L251.308 69.6764L255.14 67.5147L258.415 65.6151L260.364 64.4852L263.983 62.4054C265.038 61.8442 266.211 61.5398 267.406 61.517C268.601 61.4942 269.785 61.7537 270.861 62.2744C271.829 62.8965 272.62 63.7599 273.153 64.7799V64.7799Z" fill="#FAFAFA"/>
<path d="M319.678 91.6541L300.731 102.593L267.471 121.786L104.727 215.768C103.678 216.428 102.811 217.34 102.205 218.421L95.6543 214.572C96.2407 213.531 97.0727 212.648 98.0779 212.001L274.136 110.29L294.082 98.8268L307.379 91.1465L310.474 89.3615L310.818 89.1814C311.841 88.6917 312.96 88.4375 314.093 88.4375C315.227 88.4375 316.346 88.6917 317.369 89.1814L317.713 89.3943C318.523 89.9968 319.194 90.7678 319.678 91.6541Z" fill="#FAFAFA"/>
<path d="M286.434 72.4626L71.4666 196.576C70.4311 197.24 69.5715 198.145 68.961 199.213L62.4106 195.446C62.9869 194.444 63.8027 193.6 64.7852 192.99L274.136 71.8076L277.214 70.0226C278.27 69.4613 279.443 69.157 280.638 69.1342C281.833 69.1114 283.016 69.3709 284.092 69.8916C285.084 70.5298 285.891 71.4162 286.434 72.4626V72.4626Z" fill="#FAFAFA"/>
<path d="M306.413 83.9581L91.38 208.088C90.3278 208.744 89.4599 209.657 88.8581 210.741L82.2095 206.893C82.8372 205.8 83.7407 204.891 84.8296 204.256L287.499 87.2333L297.324 81.6C298.381 81.0413 299.554 80.7397 300.75 80.7198C301.945 80.6999 303.128 80.9622 304.202 81.4854C305.139 82.1063 305.9 82.9579 306.413 83.9581Z" fill="#FAFAFA"/>
<path d="M320.644 95.1763V327.175C320.644 336.689 317.368 343.354 312.079 346.302L92.4443 473.117C94.3888 471.948 96.0752 470.396 97.4012 468.555C98.7271 466.714 99.6649 464.622 100.157 462.408C100.256 462.08 100.338 461.736 100.419 461.392C100.501 461.048 100.567 460.623 100.649 460.23C100.731 459.837 100.78 459.394 100.845 458.952C101.067 457.28 101.176 455.595 101.173 453.908V221.91C101.213 220.678 101.568 219.477 102.204 218.422C102.811 217.341 103.678 216.429 104.726 215.769L267.471 121.804L300.73 102.611L319.677 91.6719C320.294 92.738 320.627 93.9447 320.644 95.1763V95.1763Z" fill="#F5F5F5"/>
<path d="M124.688 219.613L157.44 200.666C159.405 199.536 160.978 200.437 160.978 202.713V248.288C160.914 249.518 160.56 250.715 159.945 251.782C159.331 252.85 158.472 253.756 157.44 254.429L124.688 273.376C122.723 274.506 121.135 273.589 121.135 271.329V225.754C121.202 224.523 121.558 223.325 122.176 222.258C122.793 221.191 123.654 220.285 124.688 219.613V219.613Z" fill="#455A64"/>
<path d="M121.135 290.786L300.746 187.094V194.774L121.135 298.467V290.786Z" fill="#FFA225"/>
<path opacity="0.4" d="M121.135 290.786L300.746 187.094V194.774L121.135 298.467V290.786Z" fill="white"/>
<path d="M123.264 312.598L158.931 292.014C160.093 291.326 161.043 291.883 161.043 293.242V365.133C161.005 365.87 160.794 366.587 160.427 367.227C160.06 367.867 159.547 368.412 158.931 368.817L123.264 389.402C122.085 390.09 121.135 389.533 121.135 388.174V316.283C121.173 315.544 121.387 314.826 121.757 314.185C122.127 313.545 122.643 313.001 123.264 312.598Z" fill="#F0F0F0"/>
<path d="M123.264 397.05L158.931 376.449C160.093 375.778 161.043 376.334 161.043 377.677V433.945L121.135 457.035V400.784C121.166 400.037 121.375 399.308 121.746 398.658C122.116 398.009 122.637 397.457 123.264 397.05Z" fill="#F0F0F0"/>
<path d="M169.837 285.693L205.488 265.108C206.667 264.437 207.617 264.977 207.617 266.336V361.317C207.577 362.055 207.363 362.774 206.993 363.414C206.623 364.054 206.108 364.598 205.488 365.002L169.837 385.586C168.658 386.258 167.708 385.717 167.708 384.358V289.377C167.751 288.64 167.966 287.922 168.335 287.282C168.705 286.643 169.22 286.098 169.837 285.693V285.693Z" fill="#F0F0F0"/>
<path d="M216.395 258.835L252.045 238.201C253.224 237.514 254.174 238.07 254.174 239.43V311.32C254.135 312.059 253.922 312.778 253.552 313.418C253.182 314.059 252.666 314.602 252.045 315.005L216.395 335.638C215.215 336.326 214.266 335.769 214.266 334.41V262.52C214.304 261.781 214.517 261.062 214.887 260.422C215.257 259.781 215.774 259.238 216.395 258.835V258.835Z" fill="#F0F0F0"/>
<path d="M262.968 231.942L298.618 211.358C299.797 210.67 300.747 211.227 300.747 212.586V307.567C300.705 308.304 300.49 309.022 300.12 309.662C299.75 310.301 299.236 310.846 298.618 311.251L262.968 331.836C261.789 332.507 260.839 331.967 260.839 330.607V235.627C260.878 234.888 261.091 234.169 261.461 233.529C261.831 232.888 262.347 232.345 262.968 231.942Z" fill="#F0F0F0"/>
<path d="M169.837 393.247L205.488 372.662C206.667 371.975 207.617 372.531 207.617 373.891V407.101L167.708 430.158V396.932C167.747 396.193 167.96 395.474 168.33 394.834C168.7 394.193 169.217 393.649 169.837 393.247V393.247Z" fill="#F0F0F0"/>
<path d="M214.2 347.002V403.27L254.108 380.229V323.961C254.108 322.602 253.158 322.062 251.979 322.733L216.329 343.318C215.709 343.721 215.193 344.265 214.823 344.905C214.453 345.546 214.24 346.264 214.2 347.002V347.002Z" fill="#F0F0F0"/>
<path d="M262.951 339.489L298.618 318.905C299.797 318.217 300.747 318.774 300.747 320.133V353.343L260.839 376.384V343.174C260.877 342.437 261.088 341.719 261.455 341.079C261.822 340.439 262.335 339.894 262.951 339.489V339.489Z" fill="#F0F0F0"/>
<path d="M176.535 397.051L198.888 384.147C200.067 383.459 201.017 384.016 201.017 385.375V403.601C200.979 404.34 200.765 405.059 200.395 405.699C200.025 406.34 199.509 406.884 198.888 407.286L176.535 420.157C175.356 420.829 174.406 420.288 174.406 418.929V400.801C174.435 400.051 174.643 399.319 175.013 398.666C175.384 398.014 175.906 397.46 176.535 397.051Z" fill="#E0E0E0"/>
<path d="M269.616 343.348L291.969 330.444C293.132 329.756 294.098 330.313 294.098 331.672V349.8C294.054 350.537 293.839 351.254 293.47 351.894C293.1 352.534 292.586 353.078 291.969 353.485L269.616 366.389C268.437 367.06 267.487 366.52 267.487 365.161V347.032C267.526 346.294 267.739 345.575 268.109 344.934C268.479 344.294 268.996 343.75 269.616 343.348V343.348Z" fill="#E0E0E0"/>
<path d="M129.913 316.448L152.266 303.527C153.445 302.856 154.395 303.413 154.395 304.755V322.9C154.353 323.638 154.138 324.355 153.768 324.995C153.398 325.635 152.884 326.179 152.266 326.585L129.913 339.489C128.75 340.16 127.784 339.62 127.784 338.261V320.083C127.832 319.354 128.049 318.645 128.418 318.014C128.788 317.383 129.3 316.846 129.913 316.448V316.448Z" fill="#E0E0E0"/>
<path d="M129.209 343.732L152.987 330.009C153.773 329.567 154.395 329.927 154.395 330.828V331.401C154.37 331.892 154.23 332.371 153.985 332.798C153.74 333.224 153.398 333.587 152.987 333.857L129.209 347.58C128.423 348.039 127.784 347.58 127.784 346.762V346.188C127.812 345.696 127.956 345.217 128.203 344.79C128.451 344.363 128.795 344.001 129.209 343.732V343.732Z" fill="#E0E0E0"/>
<path d="M129.209 351.412L152.987 337.689C153.773 337.246 154.395 337.607 154.395 338.507V339.081C154.37 339.572 154.23 340.05 153.985 340.477C153.74 340.904 153.398 341.267 152.987 341.537L129.209 355.26C128.423 355.719 127.784 355.26 127.784 354.441V353.868C127.812 353.376 127.956 352.897 128.203 352.47C128.451 352.043 128.795 351.681 129.209 351.412Z" fill="#E0E0E0"/>
<path d="M129.209 359.091L152.987 345.368C153.773 344.926 154.395 345.286 154.395 346.187V346.76C154.37 347.252 154.23 347.73 153.985 348.157C153.74 348.584 153.398 348.947 152.987 349.217L129.209 362.94C128.423 363.398 127.784 363.022 127.784 362.121V361.548C127.812 361.055 127.956 360.576 128.203 360.15C128.451 359.723 128.795 359.36 129.209 359.091Z" fill="#E0E0E0"/>
<path d="M129.209 366.771L152.987 353.048C153.773 352.606 154.395 352.966 154.395 353.867V354.473C154.37 354.964 154.23 355.443 153.985 355.869C153.74 356.296 153.398 356.659 152.987 356.929L129.209 370.652C128.423 371.111 127.784 370.734 127.784 369.833V369.211C127.815 368.721 127.96 368.246 128.207 367.822C128.454 367.398 128.797 367.038 129.209 366.771Z" fill="#E0E0E0"/>
<path d="M129.209 374.451L152.987 360.728C153.773 360.286 154.395 360.646 154.395 361.546V362.12C154.37 362.611 154.23 363.089 153.985 363.516C153.74 363.943 153.398 364.306 152.987 364.576L129.209 378.299C128.423 378.758 127.784 378.381 127.784 377.48V376.907C127.812 376.415 127.956 375.936 128.203 375.509C128.451 375.082 128.795 374.72 129.209 374.451Z" fill="#E0E0E0"/>
<path d="M176.535 289.559L198.888 276.655C200.067 275.967 201.017 276.524 201.017 277.883V296.011C200.977 296.749 200.764 297.468 200.394 298.108C200.024 298.748 199.508 299.292 198.888 299.696L176.535 312.6C175.356 313.271 174.406 312.731 174.406 311.372V293.243C174.445 292.505 174.658 291.786 175.028 291.145C175.398 290.505 175.915 289.961 176.535 289.559V289.559Z" fill="#E0E0E0"/>
<path d="M175.766 316.805L199.544 303.082C200.33 302.623 200.968 302.983 200.968 303.9V304.457C200.942 304.95 200.798 305.429 200.551 305.856C200.303 306.283 199.958 306.646 199.544 306.914L175.766 320.637C174.996 321.095 174.357 320.637 174.357 319.818V319.261C174.382 318.77 174.523 318.291 174.768 317.864C175.012 317.438 175.354 317.074 175.766 316.805V316.805Z" fill="#E0E0E0"/>
<path d="M175.766 324.539L199.544 310.816C200.33 310.357 200.968 310.718 200.968 311.635V312.192C200.942 312.684 200.798 313.164 200.551 313.591C200.303 314.018 199.958 314.38 199.544 314.648L175.766 328.371C174.996 328.83 174.357 328.453 174.357 327.552V326.995C174.382 326.504 174.523 326.026 174.768 325.599C175.012 325.172 175.354 324.809 175.766 324.539V324.539Z" fill="#E0E0E0"/>
<path d="M175.766 332.221L199.544 318.449C200.33 317.99 200.968 318.351 200.968 319.268V319.824C200.942 320.317 200.798 320.797 200.551 321.224C200.303 321.65 199.958 322.013 199.544 322.281L175.766 336.004C174.996 336.462 174.357 336.086 174.357 335.185V334.628C174.39 334.145 174.534 333.677 174.778 333.259C175.023 332.841 175.361 332.486 175.766 332.221V332.221Z" fill="#E0E0E0"/>
<path d="M175.766 339.898L199.544 326.175C200.33 325.717 200.968 326.077 200.968 326.994V327.551C200.942 328.044 200.798 328.523 200.551 328.95C200.303 329.377 199.958 329.739 199.544 330.007L175.766 343.73C174.996 344.189 174.357 343.812 174.357 342.912V342.355C174.382 341.863 174.523 341.385 174.768 340.958C175.012 340.531 175.354 340.168 175.766 339.898V339.898Z" fill="#E0E0E0"/>
<path d="M175.766 347.578L199.544 333.855C200.33 333.396 200.968 333.757 200.968 334.674V335.231C200.942 335.723 200.798 336.203 200.551 336.63C200.303 337.057 199.958 337.419 199.544 337.687L175.766 351.41C174.996 351.869 174.357 351.492 174.357 350.591V350.034C174.382 349.543 174.523 349.065 174.768 348.638C175.012 348.211 175.354 347.848 175.766 347.578V347.578Z" fill="#E0E0E0"/>
<path d="M175.766 355.255L199.544 341.532C200.33 341.073 200.968 341.45 200.968 342.351V342.907C200.944 343.401 200.802 343.881 200.554 344.309C200.307 344.736 199.96 345.098 199.544 345.364L175.766 359.087C174.996 359.545 174.357 359.185 174.357 358.268V357.744C174.381 357.248 174.521 356.764 174.766 356.332C175.01 355.9 175.353 355.531 175.766 355.255Z" fill="#E0E0E0"/>
<path d="M175.766 362.934L199.544 349.211C200.33 348.753 200.968 349.13 200.968 350.03V350.587C200.944 351.08 200.802 351.561 200.554 351.988C200.307 352.416 199.96 352.777 199.544 353.043L175.766 366.766C174.996 367.225 174.357 366.865 174.357 365.948V365.391C174.386 364.9 174.528 364.423 174.773 363.997C175.017 363.571 175.357 363.207 175.766 362.934V362.934Z" fill="#E0E0E0"/>
<path d="M175.766 370.614L199.544 356.891C200.33 356.433 200.968 356.809 200.968 357.71V358.267C200.944 358.76 200.802 359.241 200.554 359.668C200.307 360.095 199.96 360.457 199.544 360.723L175.766 374.446C174.996 374.905 174.357 374.544 174.357 373.627V373.071C174.386 372.58 174.528 372.103 174.773 371.677C175.017 371.251 175.357 370.887 175.766 370.614V370.614Z" fill="#E0E0E0"/>
<path d="M129.913 400.948L152.266 388.027C153.445 387.356 154.395 387.913 154.395 389.255V407.4C154.355 408.138 154.142 408.857 153.772 409.497C153.402 410.137 152.886 410.681 152.266 411.085L129.913 423.989C128.75 424.66 127.784 424.12 127.784 422.761V404.632C127.824 403.894 128.038 403.176 128.408 402.535C128.778 401.895 129.293 401.351 129.913 400.948V400.948Z" fill="#E0E0E0"/>
<path d="M129.209 428.162L152.987 414.439C153.773 413.996 154.395 414.357 154.395 415.257V415.831C154.37 416.322 154.23 416.8 153.985 417.227C153.74 417.654 153.398 418.017 152.987 418.287L129.209 432.01C128.423 432.469 127.784 432.092 127.784 431.191V430.618C127.812 430.126 127.956 429.647 128.203 429.22C128.451 428.793 128.795 428.431 129.209 428.162Z" fill="#E0E0E0"/>
<path d="M129.209 435.912L152.987 422.189C153.773 421.746 154.395 422.107 154.395 423.007V423.581C154.37 424.072 154.23 424.55 153.985 424.977C153.74 425.404 153.398 425.767 152.987 426.037L129.209 439.76C128.423 440.219 127.784 439.842 127.784 438.941V438.368C127.812 437.876 127.956 437.397 128.203 436.97C128.451 436.543 128.795 436.181 129.209 435.912V435.912Z" fill="#E0E0E0"/>
<path d="M129.209 443.603L152.987 429.798C153.773 429.356 154.395 429.716 154.395 430.617V431.19C154.37 431.681 154.23 432.16 153.985 432.587C153.74 433.013 153.398 433.377 152.987 433.646L129.209 447.369C128.423 447.828 127.784 447.451 127.784 446.551V445.994C127.818 445.512 127.965 445.044 128.213 444.629C128.46 444.214 128.801 443.863 129.209 443.603V443.603Z" fill="#E0E0E0"/>
<path d="M223.043 262.669L245.396 249.765C246.575 249.093 247.525 249.634 247.525 250.993V269.121C247.486 269.86 247.273 270.579 246.903 271.219C246.533 271.859 246.017 272.403 245.396 272.806L223.043 285.693C221.88 286.365 220.914 285.808 220.914 284.465V266.353C220.959 265.616 221.175 264.9 221.544 264.26C221.914 263.621 222.427 263.076 223.043 262.669V262.669Z" fill="#E0E0E0"/>
<path d="M222.388 289.968L246.166 276.245C246.936 275.803 247.574 276.245 247.574 277.064V277.637C247.546 278.127 247.403 278.605 247.159 279.031C246.915 279.457 246.575 279.821 246.166 280.093L222.388 293.882C221.602 294.324 220.963 293.882 220.963 293.063V292.49C220.981 291.986 221.12 291.494 221.368 291.055C221.616 290.616 221.966 290.243 222.388 289.968V289.968Z" fill="#E0E0E0"/>
<path d="M222.388 297.648L246.166 283.925C246.936 283.483 247.574 283.925 247.574 284.744V285.317C247.546 285.807 247.403 286.284 247.159 286.71C246.915 287.137 246.575 287.5 246.166 287.773L222.388 301.496C221.602 301.938 220.963 301.496 220.963 300.677V300.104C220.992 299.612 221.135 299.133 221.383 298.706C221.63 298.279 221.975 297.917 222.388 297.648V297.648Z" fill="#E0E0E0"/>
<path d="M222.388 305.341L246.166 291.618C246.936 291.176 247.574 291.536 247.574 292.437V293.01C247.546 293.501 247.403 293.978 247.159 294.404C246.915 294.83 246.575 295.194 246.166 295.467L222.388 309.173C221.602 309.615 220.963 309.173 220.963 308.355V307.781C220.994 307.292 221.139 306.816 221.386 306.392C221.634 305.969 221.977 305.609 222.388 305.341Z" fill="#E0E0E0"/>
<path d="M222.388 313.005L246.166 299.282C246.936 298.84 247.574 299.2 247.574 300.101V300.674C247.546 301.165 247.403 301.642 247.159 302.068C246.915 302.494 246.575 302.858 246.166 303.131L222.388 316.805C221.602 317.247 220.963 316.887 220.963 315.986V315.413C220.999 314.929 221.146 314.46 221.393 314.042C221.64 313.624 221.981 313.27 222.388 313.005Z" fill="#E0E0E0"/>
<path d="M222.388 320.684L246.117 306.978C246.887 306.536 247.525 306.896 247.525 307.796V308.37C247.496 308.86 247.354 309.337 247.11 309.763C246.865 310.19 246.526 310.553 246.117 310.826L222.388 324.533C221.602 324.975 220.963 324.615 220.963 323.714V323.141C220.992 322.648 221.135 322.169 221.383 321.743C221.63 321.316 221.975 320.953 222.388 320.684V320.684Z" fill="#E0E0E0"/>
<path d="M269.616 235.793L291.969 222.889C293.132 222.201 294.098 222.758 294.098 224.117V242.245C294.054 242.983 293.839 243.7 293.47 244.339C293.1 244.979 292.586 245.524 291.969 245.93L269.616 258.834C268.437 259.506 267.487 258.965 267.487 257.606V239.478C267.526 238.739 267.739 238.02 268.109 237.38C268.479 236.739 268.996 236.196 269.616 235.793V235.793Z" fill="#E0E0E0"/>
<path d="M268.896 263.076L292.674 249.353C293.46 248.911 294.098 249.271 294.098 250.171V250.745C294.07 251.237 293.927 251.716 293.679 252.143C293.432 252.57 293.087 252.932 292.674 253.201L268.896 266.924C268.126 267.383 267.487 267.006 267.487 266.105V265.532C267.516 265.042 267.658 264.565 267.903 264.138C268.147 263.712 268.487 263.348 268.896 263.076Z" fill="#E0E0E0"/>
<path d="M268.896 270.772L292.674 257.032C293.46 256.59 294.098 256.95 294.098 257.851V258.424C294.07 258.917 293.927 259.396 293.679 259.823C293.432 260.249 293.087 260.612 292.674 260.881L268.896 274.604C268.126 275.062 267.487 274.686 267.487 273.785V273.228C267.512 272.737 267.653 272.258 267.898 271.832C268.142 271.405 268.484 271.042 268.896 270.772V270.772Z" fill="#E0E0E0"/>
<path d="M268.896 278.451L292.674 264.712C293.46 264.27 294.098 264.63 294.098 265.531V266.038C294.07 266.531 293.927 267.01 293.679 267.437C293.432 267.863 293.087 268.226 292.674 268.495L268.896 282.218C268.126 282.676 267.487 282.3 267.487 281.399V280.842C267.522 280.362 267.668 279.897 267.912 279.482C268.156 279.068 268.493 278.715 268.896 278.451V278.451Z" fill="#E0E0E0"/>
<path d="M268.896 286.133L292.674 272.393C293.46 271.951 294.098 272.393 294.098 273.212V273.785C294.07 274.278 293.927 274.757 293.679 275.184C293.432 275.61 293.087 275.973 292.674 276.242L268.896 289.965C268.126 290.423 267.487 289.965 267.487 289.146V288.589C267.512 288.098 267.653 287.619 267.898 287.193C268.142 286.766 268.484 286.403 268.896 286.133V286.133Z" fill="#E0E0E0"/>
<path d="M268.896 293.883L292.674 280.143C293.46 279.701 294.098 280.143 294.098 280.962V281.535C294.07 282.028 293.927 282.507 293.679 282.934C293.432 283.36 293.087 283.723 292.674 283.992L268.896 297.649C268.126 298.108 267.487 297.649 267.487 296.831V296.274C267.522 295.794 267.668 295.328 267.912 294.914C268.156 294.499 268.493 294.146 268.896 293.883V293.883Z" fill="#E0E0E0"/>
<path d="M268.896 301.492L292.674 287.769C293.46 287.311 294.098 287.671 294.098 288.588V289.145C294.071 289.637 293.928 290.117 293.681 290.544C293.433 290.971 293.088 291.333 292.674 291.601L268.896 305.34C268.126 305.799 267.487 305.34 267.487 304.522V303.965C267.511 303.471 267.651 302.99 267.896 302.56C268.14 302.13 268.483 301.765 268.896 301.492Z" fill="#E0E0E0"/>
<path d="M268.896 309.177L292.674 295.519C293.46 295.061 294.098 295.421 294.098 296.338V296.895C294.071 297.387 293.928 297.867 293.681 298.294C293.433 298.721 293.088 299.083 292.674 299.351L268.896 313.074C268.126 313.533 267.487 313.074 267.487 312.255V311.699C267.503 311.196 267.64 310.705 267.885 310.266C268.13 309.828 268.476 309.454 268.896 309.177Z" fill="#E0E0E0"/>
<path d="M268.896 316.805L292.674 303.082C293.46 302.623 294.098 302.983 294.098 303.9V304.457C294.071 304.95 293.928 305.429 293.681 305.856C293.433 306.283 293.088 306.646 292.674 306.914L268.896 320.637C268.126 321.095 267.487 320.735 267.487 319.818V319.261C267.514 318.77 267.655 318.292 267.899 317.865C268.144 317.439 268.485 317.075 268.896 316.805V316.805Z" fill="#E0E0E0"/>
<path d="M223.043 347.169L245.396 334.265C246.575 333.593 247.525 334.134 247.525 335.493V353.621C247.486 354.36 247.273 355.079 246.903 355.719C246.533 356.359 246.017 356.903 245.396 357.306L223.043 370.226C221.88 370.898 220.914 370.341 220.914 368.998V350.853C220.959 350.116 221.175 349.4 221.544 348.76C221.914 348.121 222.427 347.576 223.043 347.169V347.169Z" fill="#E0E0E0"/>
<path d="M222.388 374.466L246.166 360.743C246.936 360.301 247.574 360.661 247.574 361.562V362.135C247.546 362.626 247.403 363.103 247.159 363.529C246.915 363.955 246.575 364.319 246.166 364.592L222.388 378.315C221.602 378.757 220.963 378.397 220.963 377.496V376.923C220.992 376.43 221.135 375.951 221.383 375.525C221.63 375.098 221.975 374.735 222.388 374.466V374.466Z" fill="#E0E0E0"/>
<path d="M222.388 382.148L246.166 368.425C246.936 367.983 247.574 368.425 247.574 369.244V369.817C247.546 370.307 247.403 370.784 247.159 371.21C246.915 371.637 246.575 372 246.166 372.273L222.388 385.996C221.602 386.438 220.963 386.078 220.963 385.177V384.604C220.992 384.112 221.135 383.633 221.383 383.206C221.63 382.779 221.975 382.417 222.388 382.148Z" fill="#E0E0E0"/>
<path d="M222.388 389.828L246.166 376.104C246.936 375.662 247.574 376.104 247.574 376.923V377.496C247.546 377.987 247.403 378.464 247.159 378.89C246.915 379.316 246.575 379.68 246.166 379.953L222.388 393.676C221.602 394.118 220.963 393.758 220.963 392.857V392.284C220.992 391.791 221.135 391.312 221.383 390.886C221.63 390.459 221.975 390.096 222.388 389.828Z" fill="#E0E0E0"/>
<path d="M175.389 239.936C175.062 239.827 174.898 239.516 174.898 239.003C174.918 238.504 175.017 238.012 175.193 237.545L176.961 231.912C177.074 231.403 177.33 230.937 177.698 230.569C177.819 230.503 177.954 230.468 178.091 230.468C178.229 230.468 178.364 230.503 178.484 230.569C179.395 230.95 180.387 231.096 181.368 230.993C182.35 230.89 183.29 230.541 184.101 229.979C185.565 229.126 186.714 227.822 187.376 226.262C188.142 224.348 188.504 222.296 188.441 220.236V187.205C188.41 186.252 188.583 185.303 188.949 184.421C189.341 183.608 189.984 182.943 190.783 182.522L194.418 180.426C195.237 179.951 195.826 179.885 196.17 180.246C196.603 180.896 196.789 181.68 196.694 182.456V215.601C196.753 220.253 195.768 224.858 193.812 229.079C192.03 232.964 189.082 236.197 185.379 238.331C181.437 240.613 178.108 241.148 175.389 239.936Z" fill="#455A64"/>
<path d="M204.882 220.038C201.945 217.025 200.477 211.255 200.477 202.729C200.31 195.036 201.813 187.399 204.882 180.343C207.499 174.308 211.966 169.261 217.639 165.932C223.19 162.657 227.465 162.657 230.363 165.637C233.262 168.618 234.768 174.398 234.768 182.93C234.935 190.623 233.432 198.26 230.363 205.316C227.753 211.341 223.298 216.381 217.639 219.711C212.071 222.92 207.819 223.03 204.882 220.038ZM224.402 202.287C226.068 197.557 226.846 192.56 226.695 187.548C226.695 181.642 225.931 177.625 224.402 175.496C222.879 173.367 220.636 173.17 217.639 174.89C214.462 176.837 212.055 179.822 210.827 183.34C209.164 188.07 208.392 193.067 208.55 198.078C208.55 203.973 209.304 208.002 210.827 210.114C212.35 212.227 214.626 212.44 217.639 210.688C220.802 208.76 223.194 205.789 224.402 202.287V202.287Z" fill="#455A64"/>
<path d="M239.321 205.266C238.889 204.633 238.702 203.864 238.797 203.104V158.185C238.77 157.225 238.949 156.27 239.321 155.385C239.661 154.625 240.234 153.993 240.959 153.583L255.369 145.248C258.994 143.163 261.723 142.879 263.557 144.396C265.392 145.914 266.292 148.916 266.259 153.403C266.261 155.777 265.89 158.136 265.162 160.396C264.526 162.491 263.498 164.447 262.133 166.16C265.506 165.931 267.193 168.769 267.193 174.675C267.192 177.574 266.756 180.455 265.899 183.224C265.037 186.018 263.702 188.643 261.953 190.986C260.197 193.345 257.965 195.308 255.402 196.75L240.991 205.086C240.222 205.528 239.665 205.593 239.321 205.266ZM254.059 166.88C255.374 166.111 256.433 164.972 257.105 163.605C257.871 162.042 258.247 160.318 258.202 158.578C258.202 156.515 257.859 155.303 257.187 154.73C256.516 154.156 255.468 154.402 254.059 155.204L246.952 159.331V171.056L254.059 166.88ZM254.845 187.94C256.309 187.115 257.46 185.832 258.121 184.288C258.843 182.625 259.206 180.828 259.185 179.015C259.185 176.853 258.776 175.462 257.957 174.856C257.138 174.25 255.975 174.364 254.502 175.216L246.952 179.556V192.509L254.845 187.94Z" fill="#455A64"/>
<path d="M274.479 185.64C272.611 186.187 270.615 186.107 268.797 185.41C268.582 185.317 268.399 185.164 268.268 184.969C268.138 184.775 268.066 184.547 268.06 184.313C268.081 183.905 268.164 183.501 268.306 183.118L270.336 177.026C270.419 176.589 270.643 176.192 270.975 175.896C271.088 175.836 271.215 175.804 271.343 175.804C271.472 175.804 271.598 175.836 271.712 175.896C273.074 176.26 274.501 176.316 275.888 176.06C277.569 175.758 279.182 175.159 280.653 174.291C282.359 173.372 283.814 172.051 284.895 170.443C285.842 168.868 286.319 167.056 286.27 165.219C286.353 164.191 286.119 163.162 285.599 162.271C285.12 161.646 284.414 161.234 283.634 161.125C282.304 160.947 280.963 160.86 279.621 160.863C277.822 160.905 276.025 160.695 274.283 160.24C272.778 159.782 271.499 158.777 270.697 157.424C269.623 155.415 269.135 153.146 269.288 150.873C269.228 146.321 270.406 141.839 272.694 137.904C274.826 134.168 277.912 131.065 281.636 128.913C286.549 126.08 290.266 125.343 292.853 126.67C293.059 126.775 293.235 126.931 293.364 127.123C293.493 127.315 293.571 127.536 293.59 127.767C293.569 128.176 293.486 128.579 293.345 128.962L291.33 135.054C291.249 135.487 291.024 135.879 290.692 136.168C290.58 136.232 290.453 136.267 290.323 136.267C290.194 136.267 290.067 136.232 289.955 136.168C287.957 135.305 285.533 135.693 282.684 137.33C281.041 138.177 279.67 139.469 278.729 141.06C277.787 142.65 277.313 144.473 277.362 146.321C277.288 147.311 277.504 148.301 277.984 149.17C278.361 149.75 278.948 150.161 279.621 150.317C280.745 150.52 281.886 150.613 283.028 150.595H284.403C286.319 150.602 288.223 150.895 290.053 151.463C291.453 151.973 292.594 153.014 293.23 154.361C294.082 156.435 294.457 158.674 294.327 160.912C294.33 165.243 293.201 169.499 291.052 173.259C288.858 177.157 285.627 180.371 281.718 182.545C279.482 183.948 277.039 184.993 274.479 185.64Z" fill="#455A64"/>
<path d="M479.115 28.0481L472.466 24.1997C471.983 23.9753 471.449 23.8842 470.919 23.936C470.389 23.9879 469.883 24.1807 469.453 24.4945L384.838 73.4587C383.601 74.2684 382.572 75.3569 381.833 76.6368C381.093 77.9166 380.664 79.3521 380.58 80.8279V255.232C380.524 255.76 380.61 256.293 380.828 256.777C381.047 257.261 381.391 257.677 381.825 257.983L388.375 261.815H388.474C388.944 262.005 389.455 262.073 389.959 262.013C390.463 261.953 390.943 261.767 391.356 261.471L413.709 248.567V262.012C413.709 264.386 414.086 265.762 414.708 266.138L421.258 269.954C422.012 270.363 423.109 269.315 424.337 266.679L440.189 233.108L475.839 212.409C477.076 211.599 478.105 210.511 478.845 209.231C479.584 207.951 480.013 206.515 480.097 205.04V30.7829C480.179 30.2811 480.131 29.7668 479.959 29.2884C479.788 28.81 479.497 28.3832 479.115 28.0481V28.0481Z" fill="#FFA225"/>
<path opacity="0.4" d="M478.951 27.9515C478.48 27.7833 477.976 27.7297 477.481 27.7952C476.985 27.8607 476.512 28.0434 476.101 28.3282L391.47 77.3087C390.241 78.0736 389.227 79.1387 388.523 80.4038L381.874 76.5554C382.573 75.2868 383.589 74.2207 384.822 73.4603L469.436 24.4798C470.005 24.1308 470.653 23.9334 471.32 23.9067C471.714 23.8992 472.104 23.9952 472.45 24.185L478.951 27.9515Z" fill="white"/>
<path opacity="0.2" d="M414.822 266.203C414.217 265.826 413.84 264.45 413.84 262.076V248.647L420.538 244.75V265.875C420.538 268.135 420.882 269.51 421.422 269.969L414.822 266.203Z" fill="black"/>
<path opacity="0.1" d="M388.506 261.832L381.857 258C381.433 257.69 381.096 257.275 380.881 256.796C380.666 256.316 380.579 255.789 380.629 255.266V80.8288C380.689 79.3148 381.14 77.8421 381.939 76.5547L388.588 80.403C387.793 81.6915 387.347 83.1644 387.294 84.6772V259.081C387.232 259.606 387.312 260.138 387.525 260.622C387.738 261.106 388.077 261.524 388.506 261.832V261.832Z" fill="black"/>
<path d="M404.063 85.3811L463.492 50.9916C465.457 49.8616 467.045 50.7787 467.045 53.0386V90.818C466.978 92.0513 466.622 93.2515 466.004 94.3213C465.387 95.3911 464.526 96.3004 463.492 96.9753L404.063 131.365C402.114 132.495 400.526 131.578 400.526 129.318V91.5221C400.593 90.293 400.949 89.097 401.563 88.0304C402.178 86.9637 403.034 86.0563 404.063 85.3811V85.3811Z" fill="#455A64"/>
<path d="M467.045 106.524C466.959 107.717 466.592 108.873 465.974 109.897C465.357 110.921 464.506 111.786 463.492 112.419L404.063 146.727C402.114 147.857 400.526 147.054 400.526 144.926C400.614 143.737 400.981 142.586 401.595 141.565C402.209 140.544 403.055 139.681 404.063 139.047L463.492 104.739C465.457 103.609 467.045 104.411 467.045 106.524Z" fill="#455A64"/>
<path d="M467.045 121.93C466.959 123.123 466.592 124.279 465.974 125.304C465.357 126.328 464.506 127.192 463.492 127.826L404.063 162.215C402.114 163.345 400.526 162.543 400.526 160.414C400.614 159.226 400.981 158.075 401.595 157.054C402.209 156.032 403.055 155.17 404.063 154.535L463.492 120.145C465.457 118.966 467.045 119.769 467.045 121.93Z" fill="#455A64"/>
<path d="M467.045 137.243C466.959 138.436 466.592 139.591 465.974 140.616C465.357 141.64 464.506 142.504 463.492 143.138L404.063 177.528C402.114 178.657 400.526 177.855 400.526 175.726C400.614 174.538 400.981 173.387 401.595 172.366C402.209 171.345 403.055 170.482 404.063 169.847L463.492 135.458C465.457 134.328 467.045 135.13 467.045 137.243Z" fill="#455A64"/>
<path d="M467.045 152.602C466.959 153.795 466.592 154.95 465.974 155.975C465.357 156.999 464.506 157.863 463.492 158.497L404.063 192.805C402.114 193.935 400.526 193.132 400.526 191.003C400.614 189.815 400.981 188.664 401.595 187.643C402.209 186.622 403.055 185.759 404.063 185.124L463.492 150.735C465.457 149.769 467.045 150.489 467.045 152.602Z" fill="#455A64"/>
<path d="M400.526 206.384C400.526 208.497 402.163 209.299 404.063 208.169L410.286 204.583C411.294 203.948 412.14 203.085 412.754 202.064C413.369 201.043 413.735 199.892 413.823 198.704C413.823 196.575 412.186 195.773 410.286 196.902L404.063 200.489C403.052 201.125 402.206 201.99 401.591 203.015C400.977 204.039 400.612 205.193 400.526 206.384V206.384Z" fill="#455A64"/>
<path d="M422.83 193.532C422.83 195.645 424.468 196.447 426.384 195.317L463.492 173.865C464.506 173.231 465.357 172.367 465.974 171.342C466.592 170.318 466.959 169.162 467.045 167.969C467.045 165.857 465.408 165.054 463.492 166.184L426.384 187.637C425.369 188.27 424.519 189.134 423.901 190.159C423.284 191.183 422.917 192.339 422.83 193.532V193.532Z" fill="#455A64"/>
<path d="M400.526 221.829C400.526 223.942 402.163 224.744 404.063 223.614L410.286 220.028C411.294 219.393 412.14 218.531 412.754 217.51C413.369 216.488 413.735 215.337 413.823 214.149C413.823 212.02 412.186 211.218 410.286 212.348L404.063 215.934C403.052 216.571 402.206 217.436 401.591 218.46C400.977 219.484 400.612 220.638 400.526 221.829V221.829Z" fill="#455A64"/>
<path d="M422.83 208.891C422.83 211.004 424.468 211.806 426.384 210.676L463.492 189.224C464.506 188.59 465.357 187.726 465.974 186.702C466.592 185.677 466.959 184.522 467.045 183.329C467.045 181.216 465.408 180.414 463.492 181.544L426.384 202.996C425.369 203.63 424.519 204.494 423.901 205.518C423.284 206.543 422.917 207.698 422.83 208.891Z" fill="#455A64"/>
<path d="M400.526 237.103C400.526 239.215 402.163 240.018 404.063 238.888L410.286 235.302C411.294 234.667 412.14 233.804 412.754 232.783C413.369 231.762 413.735 230.611 413.823 229.423C413.823 227.294 412.186 226.491 410.286 227.621L404.063 231.208C403.052 231.844 402.206 232.709 401.591 233.733C400.977 234.757 400.612 235.912 400.526 237.103V237.103Z" fill="#455A64"/>
<path d="M422.83 224.25C422.83 226.363 424.468 227.165 426.384 226.035L463.492 204.583C464.504 203.951 465.353 203.089 465.971 202.068C466.588 201.046 466.956 199.894 467.045 198.704C467.045 196.575 465.408 195.773 463.492 196.902L426.384 218.355C425.369 218.989 424.519 219.853 423.901 220.877C423.284 221.902 422.917 223.057 422.83 224.25Z" fill="#455A64"/>
<path d="M558.98 74.0325L552.43 70.1841C551.947 69.9596 551.413 69.8686 550.883 69.9204C550.353 69.9722 549.847 70.1651 549.416 70.4789L464.753 119.427C463.516 120.236 462.487 121.325 461.747 122.605C461.008 123.885 460.579 125.32 460.495 126.796V301.2C460.439 301.728 460.524 302.261 460.743 302.745C460.962 303.229 461.306 303.645 461.739 303.951V303.951L468.372 307.783H468.454C468.927 307.975 469.44 308.043 469.947 307.983C470.454 307.923 470.937 307.736 471.352 307.439L493.705 294.535V307.98C493.705 310.354 494.082 311.73 494.688 312.106L501.238 315.922H501.32C502.073 316.331 503.171 315.283 504.383 312.647L520.251 279.076L555.901 258.377C557.138 257.567 558.167 256.479 558.907 255.199C559.646 253.919 560.075 252.483 560.159 251.008V76.7673C560.218 76.2482 560.14 75.7228 559.933 75.243C559.726 74.7633 559.398 74.346 558.98 74.0325V74.0325Z" fill="#FFA225"/>
<path opacity="0.4" d="M558.8 73.9357C558.329 73.7675 557.825 73.7139 557.33 73.7794C556.834 73.8449 556.362 74.0276 555.951 74.3123L471.303 123.293C470.074 124.058 469.06 125.123 468.356 126.388L461.707 122.54C462.411 121.275 463.425 120.209 464.655 119.445L549.286 70.464C549.853 70.1115 550.502 69.9139 551.169 69.8908C551.558 69.8855 551.942 69.9814 552.283 70.1692L558.8 73.9357Z" fill="white"/>
<path opacity="0.2" d="M494.671 312.192C494.066 311.816 493.689 310.44 493.689 308.066V294.637L500.338 290.789V311.898C500.338 314.158 500.681 315.533 501.238 315.992L494.671 312.192Z" fill="black"/>
<path opacity="0.1" d="M468.355 307.815L461.723 303.983C461.296 303.675 460.958 303.261 460.743 302.781C460.527 302.301 460.442 301.772 460.495 301.249V126.844C460.548 125.332 460.994 123.859 461.789 122.57L468.437 126.419C467.643 127.707 467.197 129.18 467.144 130.693V305.097C467.088 305.617 467.171 306.142 467.384 306.619C467.596 307.097 467.932 307.509 468.355 307.815Z" fill="black"/>
<path d="M483.929 131.365L543.357 96.976C545.306 95.846 546.895 96.7631 546.895 99.023V136.901C546.828 138.132 546.474 139.331 545.859 140.4C545.245 141.47 544.388 142.38 543.357 143.058L483.929 177.447C481.964 178.577 480.375 177.66 480.375 175.4V137.506C480.442 136.275 480.799 135.077 481.417 134.01C482.034 132.943 482.895 132.037 483.929 131.365V131.365Z" fill="#455A64"/>
<path d="M546.895 152.508C546.809 153.699 546.444 154.854 545.829 155.878C545.215 156.902 544.368 157.767 543.357 158.404L483.929 192.711C481.964 193.841 480.375 193.039 480.375 190.91C480.464 189.72 480.833 188.567 481.45 187.546C482.067 186.525 482.917 185.663 483.929 185.031L543.357 150.723C545.306 149.593 546.895 150.396 546.895 152.508Z" fill="#455A64"/>
<path d="M546.895 167.87C546.809 169.061 546.444 170.215 545.829 171.239C545.215 172.263 544.368 173.129 543.357 173.765L483.929 208.073C481.964 209.203 480.375 208.4 480.375 206.271C480.464 205.081 480.833 203.929 481.45 202.907C482.067 201.886 482.917 201.024 483.929 200.392L543.357 166.15C545.306 164.955 546.895 165.757 546.895 167.87Z" fill="#455A64"/>
<path d="M546.895 183.227C546.801 184.41 546.433 185.554 545.819 186.569C545.204 187.584 544.362 188.442 543.357 189.073L483.929 223.463C481.964 224.593 480.375 223.79 480.375 221.661C480.464 220.471 480.833 219.319 481.45 218.297C482.067 217.276 482.917 216.414 483.929 215.782L543.357 181.442C545.306 180.312 546.895 181.114 546.895 183.227Z" fill="#455A64"/>
<path d="M546.895 198.592C546.809 199.784 546.444 200.938 545.829 201.962C545.215 202.986 544.368 203.851 543.357 204.488L483.929 238.877C481.964 240.007 480.375 239.205 480.375 237.076C480.464 235.886 480.833 234.733 481.45 233.712C482.067 232.691 482.917 231.829 483.929 231.197L543.357 196.807C545.306 195.628 546.895 196.48 546.895 198.592Z" fill="#455A64"/>
<path d="M480.375 252.369C480.375 254.481 482.013 255.283 483.929 254.154L490.136 250.567C491.148 249.935 491.997 249.074 492.615 248.052C493.232 247.031 493.6 245.878 493.689 244.688C493.689 242.559 492.052 241.757 490.136 242.887L483.929 246.473C482.915 247.107 482.064 247.971 481.446 248.995C480.829 250.02 480.462 251.176 480.375 252.369V252.369Z" fill="#455A64"/>
<path d="M502.696 239.516C502.696 241.629 504.333 242.431 506.249 241.301L543.357 219.849C544.368 219.212 545.215 218.347 545.829 217.323C546.444 216.299 546.809 215.145 546.895 213.954C546.895 211.841 545.257 211.039 543.357 212.169L506.233 233.621C505.222 234.258 504.376 235.123 503.761 236.147C503.147 237.171 502.782 238.325 502.696 239.516V239.516Z" fill="#455A64"/>
<path d="M480.375 267.681C480.375 269.794 482.013 270.596 483.929 269.466L490.136 265.88C491.148 265.248 491.997 264.386 492.615 263.365C493.232 262.343 493.6 261.191 493.689 260.001C493.689 257.872 492.052 257.069 490.136 258.199L483.929 261.786C482.915 262.419 482.064 263.283 481.446 264.308C480.829 265.332 480.462 266.488 480.375 267.681V267.681Z" fill="#455A64"/>
<path d="M502.696 254.876C502.696 256.988 504.333 257.791 506.249 256.661L543.357 235.208C544.368 234.572 545.215 233.707 545.829 232.683C546.444 231.658 546.809 230.504 546.895 229.313C546.895 227.2 545.257 226.398 543.357 227.528L506.233 248.98C505.222 249.617 504.376 250.482 503.761 251.506C503.147 252.53 502.782 253.685 502.696 254.876V254.876Z" fill="#455A64"/>
<path d="M480.375 283.087C480.375 285.2 482.013 286.002 483.929 284.872L490.136 281.286C491.148 280.654 491.997 279.792 492.615 278.771C493.232 277.75 493.6 276.597 493.689 275.407C493.689 273.278 492.052 272.476 490.136 273.606L483.929 277.192C482.915 277.826 482.064 278.69 481.446 279.714C480.829 280.739 480.462 281.894 480.375 283.087V283.087Z" fill="#455A64"/>
<path d="M502.696 270.235C502.696 272.347 504.333 273.15 506.249 272.02L543.357 250.567C544.366 249.932 545.211 249.07 545.826 248.049C546.44 247.028 546.806 245.877 546.895 244.688C546.895 242.559 545.257 241.757 543.357 242.887L506.233 264.405C505.231 265.035 504.389 265.89 503.775 266.902C503.161 267.914 502.792 269.055 502.696 270.235V270.235Z" fill="#455A64"/>
<path d="M645.51 6.42889L636.7 1.38509H636.618C632.737 -0.792913 627.414 -0.465389 621.519 2.92444C609.646 9.78597 600.034 26.4567 600.034 40.1634C600.034 46.9922 602.425 51.8067 606.306 54.0502L614.264 58.6028L616.164 55.3276C618.332 54.8521 620.415 54.0457 622.338 52.9367C634.194 46.0915 643.823 29.4208 643.823 15.7141C643.817 13.8653 643.591 12.0238 643.152 10.2281L645.51 6.42889Z" fill="#FFA225"/>
<path d="M600.083 40.0505C600.083 46.8956 602.473 51.7102 606.354 53.9537L614.313 58.5062L616.213 55.3293C618.38 54.8401 620.461 54.0287 622.387 52.922C629.171 48.6516 634.681 42.6328 638.337 35.4979L607.222 17.4844C602.852 24.2252 600.385 32.0223 600.083 40.0505V40.0505Z" fill="#263238"/>
<path d="M645.526 6.43301L636.781 1.38921H636.699C632.818 -0.805168 627.496 -0.477645 621.601 2.92856C615.701 6.56049 610.767 11.5667 607.223 17.5195L638.337 35.5331C641.723 29.5198 643.61 22.7792 643.839 15.8819C643.833 14.0332 643.608 12.1917 643.168 10.396L645.526 6.43301Z" fill="#455A64"/>
<path d="M629.871 7.65848C618.014 14.5036 608.385 31.1744 608.385 44.9629C608.385 58.7515 618.014 64.2211 629.871 57.3596C641.727 50.498 651.438 33.7618 651.438 20.0551C651.438 6.3484 641.743 0.747817 629.871 7.65848Z" fill="#37474F"/>
<path d="M631.443 19.0074C632.079 18.7857 632.762 18.7349 633.425 18.86C633.964 18.9851 634.461 19.2506 634.866 19.6297C635.256 20.0099 635.553 20.4751 635.734 20.9889C635.94 21.512 636.062 22.0649 636.094 22.6265C636.105 22.8999 636.042 23.1712 635.914 23.4125C635.815 23.6278 635.655 23.8098 635.455 23.9366L633.818 24.87C633.555 25.0338 633.359 25.0665 633.228 24.9847C633.068 24.882 632.943 24.7337 632.868 24.5589C632.755 24.3475 632.601 24.1606 632.416 24.0088C632.23 23.857 632.016 23.7434 631.787 23.6746C631.421 23.6218 631.047 23.644 630.69 23.7397C630.332 23.8354 629.998 24.0027 629.707 24.2313C629.29 24.4653 628.905 24.7514 628.561 25.0829C628.201 25.4147 627.882 25.7886 627.611 26.1965C627.34 26.5907 627.125 27.0205 626.972 27.4738C626.824 27.906 626.746 28.3595 626.743 28.8166C626.709 29.2324 626.8 29.6489 627.005 30.0121C627.101 30.1387 627.225 30.2416 627.367 30.3126C627.509 30.3836 627.665 30.4208 627.824 30.4215C628.314 30.4433 628.805 30.3936 629.281 30.2741L631.443 29.7664C632.207 29.5646 632.996 29.4763 633.785 29.5044C634.381 29.5149 634.956 29.7222 635.422 30.0939C635.864 30.4939 636.173 31.0197 636.307 31.6005C636.492 32.4004 636.58 33.2196 636.569 34.0406C636.557 34.9632 636.436 35.8811 636.208 36.7753C635.97 37.7263 635.63 38.6487 635.193 39.5265C634.742 40.43 634.193 41.2812 633.555 42.0648C632.924 42.8542 632.204 43.5685 631.41 44.1937V46.6009C631.405 46.8692 631.338 47.1327 631.214 47.3706C631.13 47.5901 630.982 47.7787 630.788 47.911L628.905 48.9918C628.844 49.0471 628.766 49.0777 628.684 49.0777C628.602 49.0777 628.523 49.0471 628.463 48.9918C628.397 48.9157 628.347 48.8273 628.316 48.7316C628.285 48.636 628.274 48.5352 628.282 48.435V46.0114C627.657 46.2309 626.996 46.3309 626.334 46.3062C625.751 46.2804 625.186 46.0995 624.696 45.7821C624.219 45.4383 623.841 44.9753 623.599 44.4393C623.3 43.7405 623.144 42.9887 623.14 42.2286C623.125 41.9548 623.188 41.6824 623.321 41.4425C623.414 41.2243 623.567 41.037 623.763 40.9021L625.4 39.9687C625.662 39.8213 625.859 39.7722 626.006 39.8377C626.168 39.9411 626.29 40.0972 626.35 40.2798C626.465 40.5232 626.596 40.7584 626.743 40.984C626.898 41.1974 627.116 41.3576 627.365 41.4425C627.689 41.5179 628.025 41.5179 628.348 41.4425C628.871 41.3211 629.37 41.1106 629.822 40.8202C630.294 40.5465 630.743 40.2343 631.165 39.8868C631.582 39.5351 631.961 39.1399 632.295 38.7077C632.616 38.2797 632.88 37.8118 633.081 37.3158C633.28 36.8274 633.381 36.304 633.375 35.7764C633.399 35.5809 633.382 35.3826 633.325 35.1939C633.269 35.0052 633.175 34.83 633.048 34.6792C632.911 34.5702 632.753 34.4895 632.584 34.4417C632.416 34.3939 632.239 34.38 632.065 34.4008C631.512 34.4311 630.963 34.519 630.428 34.6628C629.773 34.8266 629.036 34.974 628.184 35.1378C627.519 35.2946 626.834 35.3443 626.154 35.2851C625.624 35.2493 625.122 35.0358 624.729 34.6792C624.318 34.2541 624.024 33.7292 623.877 33.1563C623.674 32.3038 623.58 31.4287 623.599 30.5525C623.598 29.6182 623.719 28.6878 623.959 27.7849C624.187 26.8661 624.505 25.9721 624.909 25.1156C625.31 24.2614 625.804 23.4541 626.383 22.7084C626.936 21.9814 627.562 21.3121 628.25 20.7105V18.3032C628.257 18.0371 628.318 17.7751 628.43 17.5336C628.523 17.3154 628.677 17.1281 628.872 16.9932L630.755 15.9124C630.813 15.8582 630.889 15.8281 630.968 15.8281C631.047 15.8281 631.123 15.8582 631.181 15.9124C631.252 15.9854 631.306 16.073 631.34 16.1692C631.374 16.2653 631.387 16.3676 631.378 16.4691L631.443 19.0074Z" fill="#FAFAFA"/>
<path d="M645.51 166.675L636.7 161.631H636.618C632.737 159.437 627.414 159.765 621.519 163.171C609.646 170.016 600.034 186.687 600.034 200.393C600.034 207.238 602.425 212.037 606.306 214.297L614.264 218.833L616.164 215.656C618.33 215.173 620.411 214.367 622.338 213.265C634.194 206.403 643.823 189.733 643.823 176.026C643.816 174.177 643.59 172.336 643.152 170.54L645.51 166.675Z" fill="#FFA225"/>
<path d="M600.083 200.357C600.083 207.203 602.473 212.001 606.354 214.261L614.313 218.797L616.213 215.62C618.38 215.131 620.461 214.319 622.387 213.213C629.177 208.935 634.688 202.904 638.337 195.756L607.222 177.742C602.848 184.499 600.381 192.313 600.083 200.357V200.357Z" fill="#263238"/>
<path d="M645.527 166.675L636.782 161.631H636.7C632.819 159.437 627.497 159.765 621.601 163.171C615.709 166.816 610.787 171.834 607.256 177.794L638.37 195.808C641.786 189.741 643.679 182.936 643.889 175.977C643.882 174.128 643.656 172.287 643.218 170.491L645.527 166.675Z" fill="#455A64"/>
<path d="M629.871 167.902C618.014 174.747 608.385 191.418 608.385 205.124C608.385 218.831 618.014 224.382 629.871 217.537C641.727 210.692 651.438 193.989 651.438 180.315C651.438 166.641 641.743 161.057 629.871 167.902Z" fill="#37474F"/>
<path d="M640.81 197.604L618.948 210.229C618.686 210.377 618.49 210.229 618.49 209.787V190.398C618.485 190.21 618.523 190.023 618.603 189.853C618.683 189.682 618.801 189.532 618.948 189.416L640.81 176.79C641.056 176.642 641.269 176.79 641.269 177.232V196.637C641.271 196.823 641.231 197.006 641.152 197.174C641.072 197.341 640.955 197.488 640.81 197.604V197.604Z" fill="#FAFAFA"/>
<path d="M634.177 181.902C633.932 182.05 633.719 181.902 633.719 181.46V178.512L626.038 182.95V185.898C626.042 186.087 626 186.275 625.918 186.446C625.835 186.616 625.714 186.765 625.564 186.881C625.318 187.028 625.105 186.881 625.105 186.438V182.77C625.103 182.585 625.142 182.401 625.222 182.234C625.301 182.066 625.418 181.919 625.564 181.804L634.177 176.891C634.439 176.744 634.636 176.891 634.636 177.333V180.887C634.649 181.081 634.614 181.275 634.534 181.452C634.454 181.629 634.332 181.784 634.177 181.902V181.902Z" fill="#FAFAFA"/>
<path d="M634.178 178.25L625.564 183.163C625.318 183.311 625.106 183.163 625.106 182.721V181.083C625.104 180.896 625.144 180.71 625.224 180.54C625.303 180.37 625.419 180.22 625.564 180.101L634.178 175.188C634.44 175.041 634.636 175.188 634.636 175.63V177.268C634.641 177.456 634.603 177.643 634.523 177.813C634.443 177.984 634.325 178.133 634.178 178.25V178.25Z" fill="#FAFAFA"/>
<path d="M632.999 190.356L626.743 193.959C626.563 194.073 626.416 193.959 626.416 193.631V192.452C626.413 192.317 626.441 192.184 626.498 192.062C626.555 191.94 626.639 191.833 626.743 191.748L632.999 188.145C633.195 188.03 633.343 188.145 633.343 188.456V189.635C633.346 189.774 633.316 189.911 633.257 190.037C633.197 190.162 633.109 190.271 632.999 190.356V190.356Z" fill="#37474F"/>
<path d="M645.51 86.5588L636.7 81.4986H636.618C632.737 79.3042 627.414 79.6317 621.519 83.0379C609.646 89.8995 600.034 106.554 600.034 120.261C600.034 127.106 602.425 131.92 606.306 134.164L614.264 138.7L616.164 135.523C618.332 135.047 620.415 134.241 622.338 133.132C634.194 126.27 643.823 109.616 643.823 95.9094C643.817 94.0553 643.591 92.2084 643.152 90.4071L645.51 86.5588Z" fill="#FFA225"/>
<path d="M600.083 120.298C600.083 127.143 602.473 131.958 606.354 134.201L614.313 138.737L616.213 135.56C618.381 135.085 620.464 134.278 622.387 133.169C629.187 128.868 634.698 122.808 638.337 115.631L607.222 97.6172C602.836 104.393 600.369 112.231 600.083 120.298V120.298Z" fill="#263238"/>
<path d="M645.527 86.5596L636.782 81.4994H636.7C632.819 79.3214 627.497 79.6326 621.601 83.0388C615.709 86.6841 610.787 91.7016 607.256 97.6625L638.37 115.676C641.765 109.637 643.653 102.868 643.873 95.943C643.866 94.0889 643.641 92.242 643.201 90.4407L645.527 86.5596Z" fill="#455A64"/>
<path d="M629.871 87.7695C618.014 94.6311 608.385 111.285 608.385 124.992C608.385 138.699 618.014 144.267 629.871 137.405C641.727 130.544 651.438 113.889 651.438 100.183C651.438 86.4758 641.743 80.9899 629.871 87.7695Z" fill="#37474F"/>
<path d="M621.961 109.587C621.961 106.475 623.599 103.037 625.63 101.825C627.66 100.613 629.298 102.234 629.298 105.362C629.298 108.49 627.66 111.912 625.63 113.124C623.599 114.336 621.961 112.715 621.961 109.587Z" fill="white"/>
<path d="M632.179 125.31L618.686 133.105L619.406 124.131C619.717 120.315 621.731 116.401 624.122 115.026L626.726 113.519C629.117 112.144 631.131 113.716 631.442 117.187L632.179 125.31Z" fill="white"/>
<path d="M630.87 100.235C630.87 97.1239 632.507 93.685 634.538 92.4731C636.568 91.2613 638.206 92.8825 638.206 96.0103C638.206 99.1382 636.568 102.561 634.538 103.773C632.507 104.984 630.87 103.363 630.87 100.235Z" fill="white"/>
<path d="M641.056 115.957L632.786 120.739L632.409 116.448C632.131 113.435 630.772 111.535 628.97 111.535C629.604 109.187 631.034 107.133 633.015 105.722L635.619 104.232C638.01 102.84 640.024 104.412 640.335 107.883L641.056 115.957Z" fill="white"/>
<path d="M421.356 421.324C421.356 411.171 414.642 401.017 401.214 393.272C374.374 377.764 330.797 377.764 304.006 393.272C290.578 401.017 283.864 411.171 283.864 421.324V440.041C283.864 450.195 290.578 460.348 304.006 468.11C330.846 483.602 374.423 483.602 401.214 468.11C414.642 460.348 421.356 450.195 421.356 440.041V421.324ZM307.331 399.02C319.318 392.093 335.399 388.293 352.61 388.293C369.821 388.293 385.903 392.093 397.89 399.02C408.731 405.275 414.708 413.201 414.708 421.324C414.708 429.446 408.731 437.372 397.89 443.628C385.903 450.555 369.772 454.37 352.61 454.37C335.448 454.37 319.318 450.555 307.331 443.628C296.49 437.372 290.512 429.446 290.512 421.324C290.512 413.201 296.49 405.243 307.331 399.02Z" fill="#FFA225"/>
<path opacity="0.3" d="M303.989 449.456C330.846 464.948 374.406 464.948 401.214 449.456C428.021 433.965 428.054 408.828 401.214 393.336C374.373 377.844 330.797 377.828 303.989 393.336C277.182 408.844 277.149 433.899 303.989 449.456ZM290.512 421.388C290.512 413.2 296.473 405.339 307.314 399.084C319.301 392.157 335.399 388.358 352.61 388.358C369.821 388.358 385.902 392.157 397.889 399.084C408.73 405.339 414.691 413.265 414.691 421.388C414.691 429.51 408.73 437.436 397.889 443.692C385.902 450.553 369.772 454.369 352.61 454.369C335.448 454.369 319.301 450.553 307.314 443.626C296.473 437.371 290.512 429.445 290.512 421.322V421.388Z" fill="white"/>
<path d="M290.512 421.327C290.552 424.634 291.48 427.869 293.198 430.694C295.916 425.978 300.714 421.54 307.33 417.741C319.301 410.814 335.399 406.998 352.61 406.998C369.821 406.998 385.902 410.814 397.889 417.741C403.641 420.77 408.514 425.232 412.038 430.694C413.745 427.865 414.666 424.631 414.708 421.327C414.708 413.139 408.73 405.279 397.889 399.023C385.902 392.113 369.821 388.297 352.61 388.297C335.399 388.297 319.301 392.113 307.33 399.023C296.473 405.246 290.512 413.205 290.512 421.327Z" fill="#FFA225"/>
<path opacity="0.1" d="M290.512 421.327C290.552 424.634 291.48 427.869 293.198 430.694C295.916 425.978 300.714 421.54 307.33 417.741C319.301 410.814 335.399 406.998 352.61 406.998C369.821 406.998 385.902 410.814 397.889 417.741C403.641 420.77 408.514 425.232 412.038 430.694C413.745 427.865 414.666 424.631 414.708 421.327C414.708 413.139 408.73 405.279 397.889 399.023C385.902 392.113 369.821 388.297 352.61 388.297C335.399 388.297 319.301 392.113 307.33 399.023C296.473 405.246 290.512 413.205 290.512 421.327Z" fill="black"/>
<path opacity="0.4" d="M307.314 407.484C319.301 400.573 335.399 396.758 352.61 396.758C369.821 396.758 385.902 400.573 397.889 407.484C406.831 412.659 412.448 418.947 414.151 425.498C412.513 432.048 406.831 438.402 397.889 443.511C385.902 450.553 369.772 454.368 352.61 454.368C335.448 454.368 319.301 450.553 307.314 443.626C298.373 438.467 292.756 432.163 291.069 425.612C292.805 418.947 298.373 412.659 307.314 407.484Z" fill="white"/>
<path opacity="0.1" d="M336.414 459.902V478.603C325.043 477.194 314.044 473.631 304.006 468.106C290.578 460.344 283.863 450.191 283.863 440.038V421.32C283.869 419.251 284.144 417.193 284.682 415.195V415.195C281.407 427.281 287.859 440.07 303.99 449.388C314.032 454.921 325.036 458.489 336.414 459.902V459.902Z" fill="black"/>
<path d="M306.037 461.297C305.953 459.627 305.476 458 304.645 456.549C303.814 455.098 302.653 453.863 301.255 452.945C300.772 452.591 300.204 452.371 299.609 452.308C299.013 452.245 298.412 452.34 297.865 452.585L274.791 465.833C274.296 466.171 273.902 466.638 273.654 467.184C273.406 467.729 273.312 468.333 273.383 468.928C273.455 470.592 273.916 472.216 274.729 473.67C275.542 475.123 276.686 476.365 278.066 477.296C278.552 477.652 279.124 477.872 279.723 477.932C280.322 477.993 280.926 477.892 281.473 477.64V477.64L304.612 464.441C305.108 464.092 305.502 463.616 305.752 463.063C306.003 462.51 306.101 461.901 306.037 461.297V461.297Z" fill="#37474F"/>
<path d="M304.612 464.426C305.105 464.078 305.497 463.604 305.748 463.055C305.998 462.505 306.098 461.899 306.037 461.298C306.017 460.055 305.744 458.829 305.234 457.695L275.381 474.759C276.097 475.776 277.011 476.639 278.067 477.297C278.552 477.653 279.124 477.873 279.723 477.933C280.322 477.994 280.926 477.893 281.473 477.641L304.612 464.442V464.426Z" fill="#263238"/>
<path d="M281.964 477.296C281.858 475.119 281.239 472.998 280.157 471.105C279.076 469.213 277.563 467.603 275.741 466.406C275.12 465.954 274.39 465.672 273.626 465.588C272.862 465.505 272.089 465.623 271.385 465.931L194.631 506.871L206.094 527.112L280.179 481.259C280.796 480.811 281.286 480.21 281.599 479.515C281.912 478.82 282.038 478.055 281.964 477.296V477.296Z" fill="#FFA225"/>
<path opacity="0.1" d="M206.012 527.096L280.097 481.244C280.739 480.797 281.25 480.186 281.575 479.474C281.901 478.763 282.029 477.977 281.947 477.199C281.854 474.868 281.136 472.606 279.868 470.648L200.117 516.599L206.012 527.096Z" fill="black"/>
<path d="M200.231 526.428C197.839 524.86 195.851 522.75 194.428 520.268C193.006 517.787 192.189 515.005 192.043 512.148C192.043 506.908 195.744 504.796 200.231 507.432C202.623 508.997 204.611 511.104 206.034 513.583C207.457 516.062 208.274 518.841 208.419 521.696C208.452 527.018 204.768 529.13 200.231 526.428Z" fill="#FFA225"/>
<g opacity="0.2">
<path opacity="0.2" d="M200.231 526.42C197.839 524.852 195.851 522.742 194.428 520.26C193.006 517.779 192.189 514.997 192.043 512.141C192.043 506.9 195.744 504.788 200.231 507.424C202.623 508.989 204.611 511.096 206.034 513.575C207.457 516.054 208.274 518.833 208.419 521.688C208.452 527.01 204.768 529.122 200.231 526.42Z" fill="black"/>
</g>
<path d="M652.633 345.563C653.469 314.449 650.996 306.965 642.693 301.25L639.418 319.264C639.418 319.264 643.201 340.552 642.791 347.61C642.447 353.833 641.842 361.628 640.368 366.656C640.098 367.54 639.516 368.297 638.73 368.784C637.014 370.007 635.481 371.468 634.178 373.124C632.933 374.434 631.869 374.762 632.032 375.171C632.271 375.628 632.674 375.978 633.16 376.151C633.645 376.324 634.178 376.308 634.652 376.105C635.715 375.683 636.721 375.133 637.649 374.467C636.916 376.376 635.882 378.156 634.587 379.74C631.623 383.359 631.492 385.586 637.469 385.652C641.219 385.652 644.216 383.375 647.033 375.122C648.122 372.096 649.003 368.999 649.669 365.853C651.071 359.157 652.061 352.381 652.633 345.563Z" fill="#FFA8A7"/>
<path d="M635.717 298.897C638.265 298.442 640.891 298.827 643.2 299.993C645.51 301.16 647.378 303.045 648.523 305.366C651.995 311.572 652.847 322.266 653.24 332.894C653.24 332.894 646.345 338.674 638.059 335.841L635.717 298.897Z" fill="#FFA225"/>
<path d="M647.361 470.183C647.983 470.429 648.147 471.624 648.245 473.998C648.245 475.8 648.687 478.911 646.607 479.583C644.528 480.254 641.4 479.877 640.057 478.191C638.419 476.062 637.224 474.211 634.817 471.64C632.721 469.397 630.461 467.301 629.625 464.157C628.856 461.307 629.494 460.079 631.427 459.244C634.096 458.114 638.288 461.831 640.384 462.404C642.153 462.896 646.722 469.954 647.361 470.183Z" fill="#263238"/>
<path d="M647.36 467.994V470.909C646.264 471.612 644.997 472.002 643.695 472.037C642.393 472.071 641.107 471.749 639.975 471.106C639.844 470.827 639.205 466.93 639.205 466.93L647.36 467.994Z" fill="#FFA8A7"/>
<path d="M623.681 487.117C624.198 488.681 624.629 490.272 624.975 491.883C625.335 493.651 625.859 496.599 625.237 497.925C624.614 499.252 622.207 500.12 618.457 500.087C615.346 500.468 612.352 501.512 609.679 503.149C606.194 504.629 602.398 505.231 598.626 504.901C595.35 504.525 591.846 502.592 591.306 501.217C590.765 499.841 591.486 498.4 599.33 495.06C599.33 495.06 610.236 491.506 614.068 487.314L623.681 487.117Z" fill="#263238"/>
<path d="M623.681 483.844V487.25C623.681 488.495 622.24 490.345 618.441 490.198C615.788 490.099 613.921 489.395 614.036 487.201V484.04L623.681 483.844Z" fill="#FFA8A7"/>
<path d="M649.261 429.213C648.611 424.035 647.454 418.934 645.805 413.983C645.805 413.983 646.853 400.883 647.345 388.404C647.885 374.959 647.345 358.043 647.574 354.686C647.574 354.686 604.178 345.908 603.359 361.466C602.54 377.023 604.996 416.587 605.586 423.416C606.175 430.245 607.224 436.271 608.681 447.341C610.138 458.411 613.987 484.073 613.987 484.073C615.486 484.837 617.151 485.218 618.834 485.184C620.517 485.15 622.165 484.701 623.632 483.876C623.632 483.876 626.695 452.762 626.367 444.918C626.121 439.076 625.119 433.291 623.387 427.706C623.387 427.706 624.205 414.884 624.926 403.732C625.646 392.58 626.433 387.225 626.564 382.443L627.497 381.985C627.497 381.985 628.447 401.226 628.971 408.055C629.495 414.884 630.608 421.434 632.541 434.109C634.26 445.114 639.353 468.401 639.353 468.401C644.266 471.086 647.279 468.057 647.279 468.057C647.279 468.057 650.587 438.76 649.261 429.213Z" fill="#37474F"/>
<path d="M626.645 382.318C626.645 382.318 637.175 377.127 642.448 372.492C642.448 372.492 637.535 379.386 631.132 382.432C631.132 382.432 628.839 406.341 628.856 405.866L627.529 382.318H626.645Z" fill="#263238"/>
<path d="M617.278 293.965L619.849 308.098L632.606 307.164L629.936 291.148L617.278 293.965Z" fill="#FFA8A7"/>
<path d="M646.1 306.13C644.823 302.282 639.959 298.106 635.079 299.007C627.853 300.246 620.731 302.03 613.774 304.345C609.303 305.983 605.242 309.798 604.865 324.488C604.865 324.488 603.375 358.746 603.342 365.428C612.663 369.085 622.815 370.088 632.672 368.326C646.1 365.395 647.721 359.827 647.721 359.827C647.721 359.827 647.885 335.263 647.492 324.553C647.083 315.465 646.968 308.767 646.1 306.13Z" fill="#F5F5F5"/>
<path d="M607.419 276.773C607.419 276.773 604.144 281.932 604.586 282.423C605.029 282.914 607.452 283.307 607.452 283.307L607.419 276.773Z" fill="#FFA8A7"/>
<path d="M616.41 262.495C609.663 264.132 607.78 267.113 607.371 277.888C606.961 289.171 608.189 292.627 609.712 294.166C610.728 295.165 616.263 295.23 619.063 294.395C622.551 293.347 630.395 290.367 633.982 284.57C638.19 277.806 639.14 268.75 634.375 265.148C627.693 260.137 619.161 261.856 616.41 262.495Z" fill="#FFA8A7"/>
<path d="M607.452 265.307C609.003 267.565 611.193 269.31 613.741 270.318C615.035 271.792 614.314 277.54 616.59 278.506C616.59 278.506 617.573 274.314 621.094 274.756C624.615 275.198 625.204 279.668 623.042 282.485C620.881 285.302 618.785 284.27 618.785 284.27C618.785 284.27 619.03 290.215 621.749 293.523C624.572 294.072 627.487 293.937 630.248 293.129C633.621 292.327 638.321 287.971 640.237 283.435C644.298 273.855 644.397 265.307 638.272 262.883C637.519 258.511 634.031 256.627 630.084 255.825C621.585 254.073 616.115 259.379 609.581 258.904C605.831 258.593 605.127 261.327 607.452 265.307Z" fill="#263238"/>
<path d="M638.419 264.294L642.415 261.805C642.262 261.522 642.052 261.274 641.799 261.075C641.546 260.876 641.256 260.731 640.944 260.649C640.633 260.566 640.309 260.549 639.991 260.597C639.673 260.644 639.368 260.757 639.095 260.927C638.822 261.097 638.586 261.321 638.403 261.586C638.22 261.85 638.093 262.149 638.029 262.465C637.966 262.78 637.968 263.105 638.035 263.42C638.102 263.734 638.233 264.032 638.419 264.294V264.294Z" fill="#263238"/>
<path d="M559.733 329.795C561.829 330.728 586.556 349.004 590.421 346.875C594.286 344.746 614.052 321.623 614.052 321.623C615.723 319.04 616.611 316.029 616.611 312.952C616.611 309.876 615.723 306.865 614.052 304.281C610.188 305.116 606.756 307.32 604.39 310.488C601.115 315.499 586.737 333.414 586.737 333.414C583.199 331.646 579.662 329.844 576.158 328.026C573.259 326.52 570.344 325.03 567.511 323.408C566.712 323.049 565.964 322.586 565.284 322.033C563.876 320.657 564.121 317.3 564.154 315.482C564.143 314.635 564.181 313.787 564.269 312.944C564.4 311.896 564.596 309.358 562.713 310.16C562.362 310.336 562.059 310.595 561.829 310.913C561.532 311.297 561.305 311.729 561.157 312.191C560.797 313.288 560.912 314.5 560.601 315.597C560.562 315.765 560.477 315.918 560.355 316.039C560.275 316.109 560.181 316.161 560.079 316.192C559.978 316.223 559.871 316.233 559.765 316.219C557.047 316.137 554.46 312.322 553.215 310.291C552.762 309.327 552.047 308.51 551.152 307.933C550.363 307.695 549.518 307.727 548.75 308.024C547.982 308.32 547.334 308.865 546.91 309.571C545.733 311.339 545.249 313.478 545.551 315.581C545.794 318.436 547.055 321.11 549.105 323.114C552.235 325.937 555.831 328.198 559.733 329.795V329.795Z" fill="#FFA8A7"/>
<path d="M616.263 303.547C613.544 303.858 609.712 303.35 604.374 309.098C600.064 314.018 596.045 319.185 592.337 324.574C593.042 327.402 594.545 329.968 596.668 331.965C598.79 333.963 601.443 335.308 604.308 335.84C604.308 335.84 613.659 326.244 616.263 320.971C618.866 315.698 619.489 307.117 616.263 303.547Z" fill="#FFA225"/>
</svg>
